<?xml version="1.0" encoding="UTF-8" standalone="no"?>
<!DOCTYPE svg PUBLIC "-//W3C//DTD SVG 1.1//EN" "http://www.w3.org/Graphics/SVG/1.1/DTD/svg11.dtd">
<svg xmlns="http://www.w3.org/2000/svg" version="1.1" viewBox="0.00 0.00 512.00 512.00">
<path fill="#77554c" d="
  M 137.63 0.00
  L 374.49 0.00
  Q 403.67 2.19 424.12 21.11
  Q 445.47 40.86 449.25 69.53
  Q 450.09 75.91 450.07 88.71
  Q 449.92 212.88 450.02 351.69
  C 450.03 361.02 445.45 368.61 436.52 371.85
  C 426.07 375.65 414.37 369.63 411.06 359.26
  Q 409.98 355.87 409.98 350.13
  Q 409.97 218.91 410.07 88.26
  Q 410.08 75.53 408.76 70.33
  C 404.08 51.94 388.11 39.98 369.05 39.99
  Q 258.99 40.05 145.24 39.96
  Q 137.53 39.95 132.81 41.06
  C 118.26 44.45 107.11 55.77 103.21 70.10
  Q 101.94 74.73 101.95 87.42
  Q 102.04 273.76 102.00 452.63
  C 102.00 463.45 110.40 471.15 120.85 471.92
  C 128.78 472.50 133.31 469.52 138.91 463.74
  Q 185.34 415.90 237.99 361.85
  C 240.96 358.81 243.69 355.71 247.34 354.02
  C 255.58 350.21 264.43 351.97 270.69 358.41
  Q 322.05 411.22 376.19 466.83
  Q 377.85 468.54 380.08 469.71
  C 391.80 475.90 407.79 468.92 409.72 455.38
  C 410.17 452.19 409.86 448.93 410.96 445.86
  C 414.68 435.50 425.01 429.68 435.75 432.90
  C 444.29 435.46 449.98 443.22 449.93 452.04
  C 449.74 484.97 425.00 509.54 392.60 512.00
  L 386.76 512.00
  Q 362.98 510.57 346.80 493.95
  Q 301.48 447.40 256.24 400.88
  Q 256.02 400.65 255.80 400.88
  Q 211.14 446.77 166.44 492.69
  Q 149.06 510.55 125.12 512.00
  L 119.76 512.00
  Q 95.56 510.49 79.33 494.43
  Q 65.88 481.12 62.86 462.46
  Q 61.92 456.70 61.93 442.87
  Q 62.07 264.32 61.94 86.56
  Q 61.93 73.94 63.04 67.06
  Q 66.24 47.23 78.32 31.58
  Q 100.39 3.00 137.63 0.00
  Z"
/>
</svg>
