<svg width="138" height="176" viewBox="0 0 138 176" fill="none" xmlns="http://www.w3.org/2000/svg">
<path d="M138 172C138 174.209 136.209 176 134 176L3.99997 176C1.79083 176 -3.0361e-05 174.209 -3.01679e-05 172L-1.54809e-05 3.99999C-1.52877e-05 1.79085 1.79085 -1.19078e-05 3.99998 -1.17147e-05L134 -3.49691e-07C136.209 -1.56562e-07 138 1.79086 138 4L138 172Z" fill="#C39B7B"/>
<path d="M136 172C136 173.105 135.105 174 134 174L132 174L132 2L134 2C135.105 2 136 2.89543 136 4L136 172Z" fill="#FFFBF8"/>
<path d="M-3.05176e-05 149L73 149L73 167L-3.05176e-05 167L-3.05176e-05 149Z" fill="#FFEEDC"/>
<g clip-path="url(#clip0_8_51)">
<path d="M81.4282 148.76H78.8377C78.8269 148.76 78.8181 148.769 78.8181 148.78V154.004C78.8181 154.015 78.8269 154.023 78.8377 154.023H81.4282C81.4391 154.023 81.4478 154.015 81.4478 154.004V148.78C81.4478 148.769 81.4391 148.76 81.4282 148.76Z" fill="#FFFBF8"/>
<path d="M84.0775 159.272V148.782C84.0775 148.776 84.0798 148.771 84.0839 148.767C84.088 148.763 84.0936 148.76 84.0994 148.76C86.0271 148.76 87.9676 148.76 89.921 148.76C89.9866 148.76 90.051 148.764 90.1141 148.772C90.7599 148.848 91.2606 149.147 91.6163 149.668C91.8489 150.008 91.9653 150.398 91.9657 150.838C91.9669 152.763 91.9671 154.696 91.9663 156.64C91.9663 156.65 91.9612 156.655 91.9508 156.655H89.3515C89.3476 156.655 89.3439 156.653 89.3412 156.651C89.3384 156.648 89.3369 156.644 89.3369 156.64V151.414C89.3369 151.408 89.3346 151.402 89.3305 151.398C89.3264 151.394 89.3208 151.392 89.315 151.392H86.7218C86.7121 151.392 86.7072 151.397 86.7072 151.406V161.896C86.7072 161.911 86.6999 161.918 86.6853 161.918H78.8386C78.8328 161.918 78.8273 161.916 78.8233 161.912C78.8192 161.908 78.817 161.902 78.817 161.897C78.8201 160.184 78.8195 158.463 78.8152 156.735C78.815 156.714 78.8174 156.694 78.8225 156.675C78.824 156.67 78.8274 156.664 78.8322 156.661C78.8369 156.657 78.8428 156.655 78.8488 156.655H81.4332C81.4371 156.655 81.4408 156.657 81.4435 156.659C81.4463 156.662 81.4478 156.666 81.4478 156.67V159.275C81.4478 159.278 81.4491 159.281 81.4512 159.283C81.4534 159.285 81.4564 159.287 81.4595 159.287H84.0629C84.0726 159.287 84.0775 159.282 84.0775 159.272Z" fill="#FFFBF8"/>
<path d="M99.8557 159.268V156.677C99.8557 156.671 99.8534 156.666 99.8493 156.661C99.8452 156.657 99.8396 156.655 99.8338 156.655H94.6109C94.607 156.655 94.6033 156.653 94.6006 156.651C94.5978 156.648 94.5963 156.644 94.5963 156.64V148.79C94.5963 148.782 94.5994 148.775 94.605 148.769C94.6106 148.763 94.6182 148.76 94.6261 148.76C96.5692 148.76 98.5085 148.762 100.444 148.766C100.528 148.766 100.591 148.768 100.635 148.773C101.276 148.846 101.776 149.145 102.136 149.669C102.368 150.006 102.484 150.394 102.484 150.831C102.486 151.885 102.486 152.943 102.485 154.007C102.485 154.011 102.487 154.016 102.49 154.019C102.493 154.022 102.497 154.023 102.501 154.023H112.99C112.999 154.023 113.004 154.019 113.004 154.009V151.414C113.004 151.408 113.002 151.402 112.998 151.398C112.994 151.394 112.988 151.392 112.982 151.392H105.133C105.129 151.392 105.124 151.39 105.12 151.386C105.117 151.383 105.115 151.378 105.115 151.373V148.782C105.115 148.777 105.117 148.771 105.122 148.767C105.126 148.763 105.131 148.76 105.137 148.76C108.067 148.76 110.884 148.761 113.589 148.763C113.709 148.763 113.773 148.764 113.779 148.765C114.438 148.86 114.94 149.16 115.285 149.666C115.516 150.004 115.632 150.399 115.633 150.851C115.635 151.879 115.635 152.931 115.633 154.007C115.633 154.018 115.638 154.023 115.649 154.023H123.508C123.518 154.023 123.523 154.019 123.523 154.009V148.784C123.523 148.78 123.524 148.777 123.525 148.774C123.526 148.771 123.528 148.769 123.53 148.766C123.532 148.764 123.535 148.762 123.538 148.761C123.541 148.76 123.544 148.759 123.548 148.759C123.714 148.762 123.88 148.762 124.047 148.759C124.758 148.749 125.403 149.083 125.799 149.661C126.031 150.001 126.148 150.388 126.149 150.822C126.151 152.76 126.153 154.7 126.153 156.641C126.153 156.65 126.148 156.655 126.139 156.655H115.648C115.639 156.655 115.634 156.66 115.634 156.67V159.257C115.634 159.277 115.644 159.287 115.663 159.287H126.142C126.149 159.287 126.153 159.29 126.153 159.298V161.911C126.153 161.913 126.152 161.915 126.151 161.916C126.149 161.917 126.147 161.918 126.145 161.918H113.023C113.018 161.918 113.013 161.916 113.01 161.913C113.006 161.909 113.004 161.905 113.004 161.9V156.677C113.004 156.662 112.997 156.655 112.982 156.655H102.5C102.49 156.655 102.485 156.66 102.485 156.67V159.268C102.485 159.273 102.487 159.278 102.491 159.281C102.494 159.285 102.499 159.287 102.504 159.287H110.272C110.282 159.287 110.287 159.291 110.287 159.301V161.904C110.287 161.913 110.282 161.918 110.272 161.918H89.3588C89.353 161.918 89.3474 161.916 89.3433 161.912C89.3392 161.908 89.3369 161.902 89.3369 161.896V159.312C89.3369 159.305 89.3396 159.299 89.3444 159.294C89.3493 159.289 89.3558 159.287 89.3626 159.287H99.8376C99.8497 159.287 99.8557 159.28 99.8557 159.268ZM99.8557 151.406C99.8557 151.403 99.8542 151.399 99.8514 151.396C99.8487 151.393 99.845 151.392 99.8411 151.392H97.2406C97.2367 151.392 97.233 151.393 97.2303 151.396C97.2275 151.399 97.226 151.403 97.226 151.406V154.009C97.226 154.013 97.2275 154.016 97.2303 154.019C97.233 154.022 97.2367 154.023 97.2406 154.023H99.8411C99.845 154.023 99.8487 154.022 99.8514 154.019C99.8542 154.016 99.8557 154.013 99.8557 154.009V151.406Z" fill="#FFFBF8"/>
<path d="M120.871 148.76H118.286C118.274 148.76 118.264 148.77 118.264 148.783V151.369C118.264 151.382 118.274 151.392 118.286 151.392H120.871C120.883 151.392 120.893 151.382 120.893 151.369V148.783C120.893 148.77 120.883 148.76 120.871 148.76Z" fill="#FFEEDC"/>
<path d="M84.0565 164.579H78.8392C78.8275 164.579 78.8181 164.588 78.8181 164.6V167.19C78.8181 167.201 78.8275 167.211 78.8392 167.211H84.0565C84.0681 167.211 84.0775 167.201 84.0775 167.19V164.6C84.0775 164.588 84.0681 164.579 84.0565 164.579Z" fill="#FFEEDC"/>
<path d="M86.725 164.579H126.135C126.137 164.579 126.14 164.579 126.142 164.58C126.144 164.581 126.146 164.582 126.148 164.584C126.149 164.586 126.15 164.588 126.151 164.59C126.152 164.592 126.153 164.594 126.153 164.597V167.193C126.153 167.198 126.151 167.202 126.148 167.205C126.144 167.209 126.14 167.211 126.135 167.211H86.7245C86.7198 167.211 86.7153 167.209 86.7121 167.205C86.7088 167.202 86.7069 167.198 86.7069 167.193L86.7075 164.597C86.7075 164.594 86.708 164.592 86.7088 164.59C86.7097 164.588 86.711 164.586 86.7126 164.584C86.7143 164.582 86.7162 164.581 86.7183 164.58C86.7205 164.579 86.7227 164.579 86.725 164.579Z" fill="#FFFBF8"/>
</g>
<defs>
<clipPath id="clip0_8_51">
<rect width="49" height="20" fill="white" transform="translate(78 148)"/>
</clipPath>
</defs>
</svg>
