<svg width="42" height="35" viewBox="0 0 42 35" fill="none" xmlns="http://www.w3.org/2000/svg">
<g clip-path="url(#clip0_12_57)">
<path d="M6.16532e-05 27.567C0.0898641 27.2109 0.164551 26.8503 0.273026 26.5005C0.756714 24.9455 1.6992 23.735 3.07113 22.8198C2.95554 22.7187 2.85685 22.6328 2.75904 22.5451C2.15977 22.0056 1.94904 21.1888 2.21578 20.4426C2.48875 19.6803 3.18227 19.1632 3.99672 19.1623C4.27413 19.1623 4.45017 19.0684 4.61822 18.859C5.50913 17.7451 5.50291 16.1061 4.57021 15.0244C4.45551 14.8911 4.23589 14.7882 4.05896 14.7801C2.92798 14.7265 2.10019 13.9069 2.1082 12.8136C2.1162 11.7176 2.95999 10.9026 4.09008 10.899C4.84139 10.8972 5.5936 10.8972 6.34492 10.8945C6.36715 10.8945 6.39026 10.874 6.42138 10.8588C6.10574 10.5215 5.76254 10.2119 5.48513 9.85044C4.09897 8.04408 3.7611 6.03551 4.57465 3.91243C5.39532 1.77324 7.00554 0.514425 9.24349 0.0912395C9.62938 0.0187702 10.0313 0.0035606 10.4252 0.0035606C17.9428 -0.000912819 25.4613 -1.81359e-05 32.9789 0.00177123C34.1188 0.00177123 34.9101 0.664731 35.0355 1.70525C35.1715 2.83523 34.3295 3.84533 33.1896 3.86322C32.8544 3.86859 32.6633 4.0019 32.4801 4.24436C31.6479 5.3475 31.6888 6.99193 32.5975 8.01545C32.7024 8.13354 32.8909 8.25791 33.0323 8.24806C34.1819 8.17291 35.3902 9.29932 34.967 10.7979C34.9608 10.8203 34.9706 10.848 34.975 10.891C37.5393 11.3249 39.4029 12.683 40.1676 15.2382C40.934 17.8006 40.1373 19.9639 38.111 21.7918C38.7538 21.7918 39.3309 21.79 39.9079 21.7918C40.9153 21.7963 41.6906 22.4028 41.9387 23.3772C42.2526 24.6082 41.3065 25.8966 40.0413 25.9002C39.6305 25.9011 39.3905 26.0585 39.1673 26.3663C38.255 27.6224 38.2906 29.3205 39.258 30.5391C39.4402 30.769 39.6341 30.8809 39.9453 30.8791C41.0869 30.8737 41.9805 31.7773 41.9885 32.9046C41.9965 34.0704 41.126 34.9875 39.9622 34.9901C36.1487 35 32.3352 34.9964 28.5208 34.9955C21.1534 34.9955 13.7852 35.0054 6.41783 34.9857C3.26407 34.9776 0.56644 32.5861 0.0774163 29.4422C0.0649684 29.3644 0.0249574 29.291 -0.00171661 29.2159C-0.00171661 28.6656 -0.00171661 28.1154 -0.00171661 27.5652L6.16532e-05 27.567ZM26.394 25.9145C26.2055 25.9145 26.0837 25.9145 25.961 25.9145C19.5779 25.9145 13.1957 25.9145 6.8126 25.9145C6.71658 25.9145 6.62144 25.9136 6.52541 25.919C4.9472 26.0075 3.85623 27.4032 4.17277 28.9287C4.41461 30.0953 5.42733 30.8692 6.72636 30.8692C14.0386 30.8701 21.3508 30.8692 28.6622 30.8692C29.3148 30.8692 29.6144 31.0732 29.6011 31.508C29.5886 31.9259 29.3059 32.1075 28.6639 32.1075C21.7892 32.1075 14.9144 32.1075 8.03961 32.1075C7.45189 32.1075 6.86328 32.12 6.27645 32.0976C4.20566 32.0189 2.51275 29.8573 2.90931 27.8121C3.27385 25.9288 4.76848 24.6807 6.6739 24.6798C13.0703 24.678 19.4667 24.6798 25.8632 24.6798C26.0241 24.6798 26.1842 24.6798 26.3646 24.6798V23.0264C26.1886 23.0264 26.041 23.0264 25.8925 23.0264C19.6188 23.0264 13.346 23.0247 7.07223 23.03C6.66412 23.03 6.25334 23.056 5.847 23.1034C2.84796 23.4568 0.685584 26.5291 1.3471 29.4852C1.92148 32.0493 4.03495 33.7573 6.65612 33.7573C17.6449 33.76 28.6337 33.7582 39.6216 33.7582C40.3489 33.7582 40.7633 33.4531 40.7562 32.9252C40.7482 32.4 40.3383 32.1084 39.603 32.1084C36.9382 32.1084 34.2726 32.1048 31.6079 32.1119C31.2593 32.1128 30.9757 32.0314 30.8566 31.678C30.7098 31.2414 31.0326 30.8719 31.5563 30.871C33.5248 30.8674 35.4925 30.8701 37.461 30.8701C37.6042 30.8701 37.7473 30.8701 37.9492 30.8701C37.02 29.1971 37.028 27.5732 37.9332 25.9422H35.0195C35.0195 26.6553 35.0221 27.3415 35.0195 28.0268C35.0159 28.7327 34.5962 28.9859 33.965 28.6603C32.9691 28.1467 31.9822 27.6171 30.9784 27.1196C30.829 27.0454 30.58 27.0471 30.4298 27.1214C29.4393 27.6126 28.4639 28.1369 27.4814 28.6442C26.803 28.9949 26.4002 28.7461 26.3949 27.9776C26.3904 27.3066 26.3949 26.6356 26.3949 25.9136L26.394 25.9145ZM31.2078 3.87485H30.6636C25.0603 3.87485 19.4579 3.87485 13.8545 3.87485C13.7176 3.87485 13.5798 3.88291 13.4447 3.86949C13.0934 3.8337 12.8614 3.5805 12.8614 3.24589C12.8614 2.89876 13.0792 2.66524 13.4455 2.63482C13.5949 2.6223 13.7461 2.62767 13.8963 2.62767C20.1825 2.62767 26.4687 2.62767 32.7557 2.62588C32.9318 2.62588 33.1141 2.62588 33.2839 2.58651C33.6689 2.49615 33.8716 2.15527 33.7907 1.77414C33.7142 1.4109 33.4288 1.23822 32.8944 1.23822C25.4604 1.23822 18.0255 1.23733 10.5914 1.24091C10.2384 1.24091 9.88189 1.26864 9.53157 1.31517C6.75036 1.68288 4.87074 4.46713 5.54914 7.20486C6.11019 9.4702 7.99426 10.8954 10.4492 10.8963C17.9108 10.899 25.3724 10.8972 32.834 10.8963C32.97 10.8963 33.1114 10.9053 33.2412 10.8722C33.5986 10.7827 33.8138 10.5617 33.7996 10.169C33.7862 9.79587 33.5657 9.59456 33.2243 9.5212C33.0794 9.49078 32.9256 9.50241 32.7753 9.50241C28.2523 9.50241 23.7284 9.50241 19.2053 9.50152C16.1716 9.50152 13.1379 9.51136 10.1042 9.48899C8.66111 9.47825 7.435 8.55047 6.96731 7.19502C6.50141 5.84584 6.90063 4.41435 7.98804 3.46151C8.85761 2.69924 9.89167 2.56772 10.9826 2.63035C11.3641 2.65182 11.6255 2.89697 11.6335 3.23247C11.6415 3.58319 11.3676 3.85517 10.9711 3.87128C10.6848 3.88291 10.3967 3.86591 10.1104 3.87843C8.67978 3.94106 7.68484 5.38329 8.12585 6.74947C8.42193 7.66831 9.26039 8.25701 10.2936 8.25791C17.1266 8.2597 23.9595 8.2588 30.7925 8.25791C30.9108 8.25791 31.029 8.24628 31.2033 8.23822C30.4431 6.78347 30.4484 5.3484 31.2078 3.87485ZM26.3593 19.1301V18.4018C26.1859 18.4018 26.0374 18.4018 25.889 18.4018C24.7135 18.4018 23.5381 18.3991 22.3635 18.4036C21.9919 18.4054 21.7171 18.2775 21.6442 17.8829C21.5642 17.4499 21.8461 17.1627 22.3564 17.1609C23.8866 17.1555 25.4177 17.1591 26.9479 17.1591C29.2579 17.1591 31.567 17.1591 33.8769 17.1591C34.9724 17.1591 35.0213 17.2092 35.0213 18.3302C35.0213 18.5575 35.0213 18.7847 35.0213 19.0218C36.0962 18.7454 36.7791 17.6047 36.5434 16.5489C36.2954 15.4386 35.424 14.7694 34.2095 14.7694C24.9438 14.7685 15.6782 14.7694 6.41338 14.7694H5.95103C6.71569 16.2412 6.72102 17.6753 5.95903 19.131H26.3602L26.3593 19.1301ZM35.0479 21.7113C35.1653 21.7032 35.2613 21.7068 35.3538 21.688C37.5286 21.2433 39.1202 19.3475 39.2011 17.1072C39.298 14.4044 37.0609 12.1346 34.2806 12.1337C24.277 12.1301 14.2733 12.1328 4.27057 12.1328C4.16121 12.1328 4.05006 12.1256 3.94337 12.1435C3.58772 12.2044 3.35121 12.4817 3.35743 12.8279C3.36365 13.1966 3.56549 13.4175 3.91225 13.4909C4.08385 13.5267 4.26523 13.5195 4.44217 13.5195C14.2547 13.5204 24.0662 13.5204 33.8787 13.5213C34.1108 13.5213 34.3437 13.5249 34.5758 13.5347C36.1327 13.6036 37.4708 14.781 37.7802 16.3539C38.0683 17.8167 37.3134 19.5014 35.897 20.0114C35.0132 20.3299 34.9341 20.8166 35.0248 21.5466C35.0301 21.5869 35.0373 21.6263 35.0506 21.7113H35.0479ZM27.6574 18.417V27.1429C28.5075 26.7 29.3264 26.2974 30.1195 25.8501C30.5374 25.6148 30.893 25.6219 31.3065 25.8572C32.0178 26.2616 32.7548 26.6222 33.483 26.9979C33.572 27.0436 33.668 27.074 33.7667 27.1134V18.417H27.6574ZM26.37 20.3952C26.2099 20.3952 26.1015 20.3952 25.993 20.3952C18.7519 20.3952 11.5117 20.3952 4.27057 20.3952C4.16121 20.3952 4.04918 20.3907 3.94426 20.414C3.58505 20.4936 3.3601 20.7029 3.35565 21.0939C3.35121 21.4393 3.58594 21.7122 3.94604 21.7739C4.07941 21.7971 4.21811 21.7891 4.35504 21.7891C11.541 21.7891 18.727 21.7891 25.913 21.7891H26.37V20.3934V20.3952ZM35.0373 24.6789C36.6786 24.6789 38.2737 24.6852 39.8688 24.6753C40.3863 24.6718 40.7615 24.3005 40.7571 23.8451C40.7526 23.3879 40.3756 23.0309 39.8564 23.0291C38.3013 23.022 36.7462 23.0273 35.192 23.0291C35.1422 23.0291 35.0924 23.0515 35.0381 23.0649V24.6789H35.0373Z" fill="#E6DAC8"/>
</g>
<defs>
<clipPath id="clip0_12_57">
<rect width="42" height="35" fill="white"/>
</clipPath>
</defs>
</svg>
