<svg width="512" height="512" viewBox="0 0 512 512" fill="none" xmlns="http://www.w3.org/2000/svg">
<path d="M102 79V146V466C102 491.2 127 476.5 139.5 466C166.5 437.5 224.3 376.7 239.5 361.5C254.7 346.3 268.5 355.167 273.5 361.5C295.833 385.833 342 445.3 372 470.5C402 495.7 413.167 463.167 412 446C411.5 336.5 410.8 109.8 412 79C413.2 48.2 389.833 39.5 378 39H139.5C108.7 39 101.667 65.6667 102 79Z" fill="#77554C"/>
<path d="M137.63 0H374.49C393.943 1.46 410.486 8.49667 424.12 21.11C438.353 34.2767 446.73 50.4167 449.25 69.53C449.81 73.7833 450.083 80.1767 450.07 88.71C449.97 171.49 449.953 259.15 450.02 351.69C450.03 361.02 445.45 368.61 436.52 371.85C426.07 375.65 414.37 369.63 411.06 359.26C410.34 357 409.98 353.957 409.98 350.13C409.973 262.65 410.003 175.36 410.07 88.26C410.076 79.7733 409.64 73.7967 408.76 70.33C404.08 51.94 388.11 39.98 369.05 39.99C295.676 40.03 221.073 40.02 145.24 39.96C140.1 39.9533 135.956 40.32 132.81 41.06C118.26 44.45 107.11 55.77 103.21 70.1C102.363 73.1867 101.943 78.96 101.95 87.42C102.01 211.647 102.026 333.383 102 452.63C102 463.45 110.4 471.15 120.85 471.92C128.78 472.5 133.31 469.52 138.91 463.74C169.863 431.847 202.89 397.883 237.99 361.85C240.96 358.81 243.69 355.71 247.34 354.02C255.58 350.21 264.43 351.97 270.69 358.41C304.93 393.617 340.096 429.757 376.19 466.83C377.296 467.97 378.593 468.93 380.08 469.71C391.8 475.9 407.79 468.92 409.72 455.38C410.17 452.19 409.86 448.93 410.96 445.86C414.68 435.5 425.01 429.68 435.75 432.9C444.29 435.46 449.98 443.22 449.93 452.04C449.74 484.97 425 509.54 392.6 512H386.76C370.906 511.047 357.586 505.03 346.8 493.95C316.586 462.917 286.4 431.893 256.24 400.88C256.093 400.727 255.946 400.727 255.8 400.88C226.026 431.473 196.24 462.077 166.44 492.69C154.853 504.597 141.08 511.033 125.12 512H119.76C103.626 510.993 90.1498 505.137 79.3298 494.43C70.3631 485.557 64.8731 474.9 62.8598 462.46C62.2331 458.62 61.9231 452.09 61.9298 442.87C62.0231 323.837 62.0265 205.067 61.9398 86.56C61.9331 78.1467 62.2998 71.6467 63.0398 67.06C65.1731 53.84 70.2665 42.0133 78.3198 31.58C93.0331 12.5267 112.803 2 137.63 0Z" fill="#77554C"/>
</svg>
