<svg width="138" height="176" viewBox="0 0 138 176" fill="none" xmlns="http://www.w3.org/2000/svg">
<path d="M0 4C0 1.79086 1.79086 0 4 0H134C136.209 0 138 1.79086 138 4V172C138 174.209 136.209 176 134 176H4C1.79086 176 0 174.209 0 172V4Z" fill="#77554C"/>
<path d="M2 4C2 2.89543 2.89543 2 4 2H6V174H4C2.89543 174 2 173.105 2 172V4Z" fill="#FFFBF8"/>
<path d="M65 149H138V167H65V149Z" fill="#FFEEDC"/>
<g clip-path="url(#clip0_8_50)">
<path d="M14.4282 148.76H11.8377C11.8269 148.76 11.8181 148.769 11.8181 148.78V154.004C11.8181 154.015 11.8269 154.023 11.8377 154.023H14.4282C14.4391 154.023 14.4478 154.015 14.4478 154.004V148.78C14.4478 148.769 14.4391 148.76 14.4282 148.76Z" fill="#FFFBF8"/>
<path d="M17.0775 159.272V148.782C17.0775 148.776 17.0798 148.771 17.0839 148.767C17.088 148.763 17.0936 148.76 17.0994 148.76C19.0271 148.76 20.9676 148.76 22.921 148.76C22.9866 148.76 23.051 148.764 23.1141 148.772C23.7599 148.848 24.2606 149.147 24.6163 149.668C24.8489 150.008 24.9653 150.398 24.9657 150.838C24.9669 152.762 24.9671 154.696 24.9663 156.639C24.9663 156.65 24.9612 156.655 24.9508 156.655H22.3515C22.3476 156.655 22.3439 156.653 22.3412 156.651C22.3385 156.648 22.3369 156.644 22.3369 156.64V151.414C22.3369 151.408 22.3346 151.402 22.3305 151.398C22.3264 151.394 22.3208 151.392 22.315 151.392H19.7218C19.7121 151.392 19.7072 151.397 19.7072 151.406V161.896C19.7072 161.911 19.6999 161.918 19.6853 161.918H11.8386C11.8328 161.918 11.8273 161.916 11.8233 161.912C11.8192 161.908 11.817 161.902 11.817 161.896C11.8201 160.184 11.8195 158.463 11.8152 156.735C11.815 156.714 11.8174 156.694 11.8225 156.675C11.824 156.67 11.8274 156.664 11.8322 156.661C11.8369 156.657 11.8428 156.655 11.8488 156.655H14.4332C14.4371 156.655 14.4408 156.657 14.4435 156.659C14.4463 156.662 14.4478 156.666 14.4478 156.67V159.275C14.4478 159.278 14.4491 159.281 14.4512 159.283C14.4534 159.285 14.4564 159.287 14.4595 159.287H17.0629C17.0726 159.287 17.0775 159.282 17.0775 159.272Z" fill="#FFFBF8"/>
<path d="M32.8557 159.268V156.677C32.8557 156.671 32.8534 156.666 32.8493 156.661C32.8452 156.657 32.8396 156.655 32.8338 156.655H27.6109C27.607 156.655 27.6033 156.653 27.6006 156.651C27.5978 156.648 27.5963 156.644 27.5963 156.64V148.79C27.5963 148.782 27.5994 148.775 27.605 148.769C27.6106 148.763 27.6182 148.76 27.6261 148.76C29.5692 148.76 31.5085 148.762 33.4442 148.765C33.5275 148.766 33.591 148.768 33.6347 148.773C34.2759 148.846 34.7764 149.145 35.1362 149.669C35.3676 150.006 35.4836 150.394 35.4842 150.831C35.4856 151.885 35.4858 152.943 35.4848 154.007C35.4848 154.011 35.4865 154.016 35.4896 154.019C35.4927 154.022 35.4968 154.023 35.5012 154.023H45.9896C45.9993 154.023 46.0042 154.019 46.0042 154.009V151.414C46.0042 151.408 46.0019 151.402 45.9978 151.398C45.9936 151.394 45.9881 151.392 45.9823 151.392H38.1335C38.1286 151.392 38.1239 151.39 38.1205 151.386C38.117 151.383 38.1151 151.378 38.1151 151.373V148.782C38.1151 148.777 38.1174 148.771 38.1216 148.767C38.1258 148.763 38.1314 148.76 38.1373 148.76C41.067 148.76 43.8841 148.761 46.5886 148.763C46.7091 148.763 46.7726 148.764 46.7791 148.765C47.438 148.86 47.94 149.16 48.285 149.666C48.5158 150.004 48.6317 150.399 48.6327 150.851C48.6348 151.879 48.6349 152.931 48.633 154.007C48.633 154.018 48.6384 154.023 48.6494 154.023H56.5083C56.5181 154.023 56.523 154.019 56.523 154.009V148.784C56.523 148.78 56.5236 148.777 56.5248 148.774C56.5261 148.771 56.5279 148.769 56.5302 148.766C56.5325 148.764 56.5352 148.762 56.5382 148.761C56.5411 148.76 56.5443 148.759 56.5475 148.759C56.7137 148.762 56.8802 148.762 57.0471 148.759C57.7583 148.749 58.4029 149.083 58.7988 149.661C59.0312 150.001 59.1478 150.388 59.1486 150.822C59.1513 152.76 59.1527 154.7 59.1527 156.641C59.1527 156.65 59.148 156.655 59.1386 156.655H48.6485C48.6387 156.655 48.6339 156.66 48.6339 156.67V159.257C48.6339 159.277 48.6436 159.287 48.6631 159.287H59.1418C59.149 159.287 59.1527 159.29 59.1527 159.298V161.911C59.1527 161.913 59.1519 161.915 59.1505 161.916C59.1491 161.917 59.1473 161.918 59.1453 161.918H46.0226C46.0177 161.918 46.013 161.916 46.0096 161.913C46.0061 161.909 46.0042 161.905 46.0042 161.9V156.677C46.0042 156.662 45.9969 156.655 45.9823 156.655H35.5C35.4903 156.655 35.4854 156.66 35.4854 156.67V159.268C35.4854 159.273 35.4873 159.278 35.4908 159.281C35.4942 159.285 35.4989 159.287 35.5038 159.287H43.2722C43.282 159.287 43.2868 159.291 43.2868 159.301V161.904C43.2868 161.913 43.282 161.918 43.2722 161.918H22.3588C22.353 161.918 22.3474 161.916 22.3433 161.912C22.3392 161.908 22.3369 161.902 22.3369 161.896V159.312C22.3369 159.305 22.3396 159.299 22.3444 159.294C22.3493 159.289 22.3558 159.287 22.3626 159.287H32.8376C32.8497 159.287 32.8557 159.28 32.8557 159.268ZM32.8557 151.406C32.8557 151.403 32.8542 151.399 32.8514 151.396C32.8487 151.393 32.845 151.392 32.8411 151.392H30.2406C30.2367 151.392 30.233 151.393 30.2303 151.396C30.2275 151.399 30.226 151.403 30.226 151.406V154.009C30.226 154.013 30.2275 154.016 30.2303 154.019C30.233 154.022 30.2367 154.023 30.2406 154.023H32.8411C32.845 154.023 32.8487 154.022 32.8514 154.019C32.8542 154.016 32.8557 154.013 32.8557 154.009V151.406Z" fill="#FFFBF8"/>
<path d="M53.8708 148.76H51.2861C51.2736 148.76 51.2636 148.77 51.2636 148.783V151.369C51.2636 151.382 51.2736 151.392 51.2861 151.392H53.8708C53.8832 151.392 53.8933 151.382 53.8933 151.369V148.783C53.8933 148.77 53.8832 148.76 53.8708 148.76Z" fill="#FFEEDC"/>
<path d="M17.0565 164.579H11.8392C11.8275 164.579 11.8181 164.588 11.8181 164.6V167.189C11.8181 167.201 11.8275 167.211 11.8392 167.211H17.0565C17.0681 167.211 17.0775 167.201 17.0775 167.189V164.6C17.0775 164.588 17.0681 164.579 17.0565 164.579Z" fill="#FFEEDC"/>
<path d="M19.725 164.579H59.1351C59.1374 164.579 59.1397 164.579 59.1418 164.58C59.144 164.581 59.1459 164.582 59.1475 164.584C59.1491 164.586 59.1504 164.588 59.1513 164.59C59.1522 164.592 59.1527 164.594 59.1527 164.596V167.193C59.1527 167.198 59.1508 167.202 59.1475 167.205C59.1442 167.209 59.1398 167.211 59.1351 167.211H19.7245C19.7198 167.211 19.7153 167.209 19.7121 167.205C19.7088 167.202 19.7069 167.198 19.7069 167.193L19.7075 164.596C19.7075 164.594 19.708 164.592 19.7088 164.59C19.7097 164.588 19.711 164.586 19.7126 164.584C19.7143 164.582 19.7162 164.581 19.7183 164.58C19.7205 164.579 19.7227 164.579 19.725 164.579Z" fill="#FFFBF8"/>
</g>
<defs>
<clipPath id="clip0_8_50">
<rect width="49" height="20" fill="white" transform="translate(11 148)"/>
</clipPath>
</defs>
</svg>
