<?xml version="1.0" encoding="UTF-8" standalone="no"?>
<!DOCTYPE svg PUBLIC "-//W3C//DTD SVG 1.1//EN" "http://www.w3.org/Graphics/SVG/1.1/DTD/svg11.dtd">
<svg xmlns="http://www.w3.org/2000/svg" version="1.1" viewBox="0.00 0.00 512.00 512.00">
<path fill="#3c2a21" d="
  M 173.26 0.00
  L 368.02 0.00
  L 479.66 127.97
  Q 479.98 128.35 479.98 128.85
  Q 480.04 252.98 479.98 377.11
  Q 479.98 389.67 478.68 395.66
  C 472.91 422.37 449.45 444.10 422.46 447.55
  C 416.07 448.37 407.79 447.97 400.54 448.01
  Q 400.01 448.01 399.99 448.53
  C 398.52 481.83 371.75 509.40 338.68 512.00
  L 93.38 512.00
  Q 61.51 508.83 43.17 482.29
  C 34.24 469.36 32.01 457.64 32.01 441.05
  Q 32.00 287.66 32.00 134.26
  Q 32.00 122.30 33.36 115.85
  C 38.49 91.62 57.67 70.57 82.52 65.58
  C 90.73 63.94 101.90 64.26 111.41 63.99
  Q 111.92 63.98 111.94 63.48
  C 113.25 29.73 140.25 3.26 173.26 0.00
  Z
  M 145.40 392.31
  C 149.53 405.15 162.06 416.00 175.75 416.00
  Q 293.50 416.01 411.24 415.99
  Q 420.07 415.99 424.47 414.59
  C 434.79 411.31 443.33 402.81 446.52 392.55
  Q 448.01 387.76 448.00 376.79
  Q 448.00 268.56 448.00 160.52
  A 0.54 0.53 0.0 0 0 447.46 159.99
  Q 427.50 160.03 407.51 159.99
  Q 393.93 159.95 387.72 158.60
  C 359.12 152.33 336.00 125.66 336.00 96.00
  Q 336.00 64.16 336.00 32.53
  A 0.53 0.53 0.0 0 0 335.47 32.00
  Q 258.14 31.99 180.78 32.01
  Q 171.92 32.01 167.49 33.41
  C 157.30 36.63 148.69 45.18 145.48 55.36
  Q 144.00 60.07 144.00 70.81
  Q 144.00 225.10 144.01 379.40
  Q 144.01 387.98 145.40 392.31
  Z
  M 447.42 127.29
  L 368.80 33.42
  Q 368.01 32.48 368.01 33.70
  Q 367.98 54.08 368.01 74.91
  Q 368.01 84.20 369.31 89.87
  C 372.13 102.30 379.17 116.31 389.60 124.13
  Q 394.72 127.97 398.31 127.97
  Q 423.03 128.03 447.10 127.99
  Q 448.00 127.99 447.42 127.29
  Z
  M 65.40 456.31
  C 69.53 469.15 82.06 479.99 95.75 480.00
  Q 213.52 480.01 331.29 479.99
  Q 340.06 479.99 344.43 478.60
  C 357.66 474.40 366.92 462.53 368.01 448.77
  A 0.71 0.71 0.0 0 0 367.30 448.00
  Q 275.14 448.00 183.05 448.00
  Q 170.54 448.00 164.20 446.60
  C 138.80 440.99 118.15 419.90 113.18 394.43
  Q 111.97 388.21 111.98 374.51
  Q 112.03 235.42 111.99 96.62
  A 0.65 0.65 0.0 0 0 111.32 95.97
  Q 102.28 96.30 93.06 96.58
  C 80.39 96.96 68.96 107.22 65.38 119.29
  Q 64.00 123.93 64.00 135.84
  Q 63.99 289.63 64.01 443.42
  Q 64.01 451.98 65.40 456.31
  Z"
/>
<rect fill="#3c2a21" x="-87.87" y="-15.98" transform="translate(296.00,240.25) rotate(-0.1)" width="175.74" height="31.96" rx="15.67"/>
<rect fill="#3c2a21" x="208.11" y="304.27" width="175.78" height="31.94" rx="15.66"/>
</svg>
