<svg width="40" height="37" viewBox="0 0 40 37" fill="none" xmlns="http://www.w3.org/2000/svg">
<rect x="6" y="36" width="32" height="1" rx="0.5" fill="#77554C"/>
<path d="M18.3619 33.472C16.7532 33.472 15.4992 33.0603 14.5999 32.237C13.7132 31.4263 13.2699 30.2927 13.2699 28.836C13.2699 28.0127 13.4409 27.2273 13.7829 26.48C14.1376 25.72 14.6442 25.0423 15.3029 24.447C15.5942 24.181 15.9046 23.934 16.2339 23.706C16.5632 23.4653 16.9242 23.25 17.3169 23.06C17.0256 22.946 16.7532 22.8447 16.4999 22.756C16.2466 22.6673 15.9996 22.5977 15.7589 22.547C15.5309 22.4963 15.2966 22.471 15.0559 22.471C14.6886 22.471 14.3656 22.528 14.0869 22.642C13.8082 22.7433 13.4472 22.9333 13.0039 23.212C12.8899 23.098 12.7886 22.9333 12.6999 22.718C12.6112 22.49 12.5669 22.2747 12.5669 22.072C12.5669 21.502 12.7949 21.0523 13.2509 20.723C13.7069 20.381 14.3212 20.21 15.0939 20.21C15.5119 20.21 15.9489 20.2607 16.4049 20.362C16.8609 20.4633 17.4372 20.6407 18.1339 20.894C18.8179 21.1473 19.4196 21.331 19.9389 21.445C20.4582 21.559 20.9586 21.616 21.4399 21.616L23.1689 21.578L22.3899 23.706C22.2252 23.7313 21.9972 23.7503 21.7059 23.763C21.4272 23.7757 21.1422 23.782 20.8509 23.782C20.5596 23.7693 20.3062 23.7567 20.0909 23.744C19.6729 23.8073 19.2169 23.9277 18.7229 24.105C18.2289 24.2823 17.7476 24.4977 17.2789 24.751C16.8102 24.9917 16.3859 25.264 16.0059 25.568C15.4486 26.0113 15.0116 26.4863 14.6949 26.993C14.3909 27.4997 14.2389 28.019 14.2389 28.551C14.2389 29.121 14.4162 29.6087 14.7709 30.014C15.1256 30.4193 15.6132 30.7297 16.2339 30.945C16.8672 31.173 17.5892 31.287 18.3999 31.287C19.0459 31.287 19.7489 31.2363 20.5089 31.135C21.2689 31.0463 22.0922 30.9007 22.9789 30.698L23.2449 31.496C22.5482 31.8887 21.8769 32.2307 21.2309 32.522C20.5849 32.826 20.0086 33.0603 19.5019 33.225C19.0079 33.3897 18.6279 33.472 18.3619 33.472ZM17.7349 19.127C17.0889 18.595 16.6012 18.139 16.2719 17.759C16.5632 17.4677 16.8229 17.2017 17.0509 16.961C17.2916 16.7077 17.5069 16.467 17.6969 16.239C17.8362 16.391 18.0199 16.581 18.2479 16.809C18.4759 17.037 18.7482 17.303 19.0649 17.607C18.9129 17.8223 18.7229 18.0567 18.4949 18.31C18.2796 18.5633 18.0262 18.8357 17.7349 19.127Z" fill="#77554C"/>
<mask id="path-3-outside-1_9_370" maskUnits="userSpaceOnUse" x="16" y="10" width="17" height="26" fill="black">
<rect fill="white" x="16" y="10" width="17" height="26"/>
<path d="M25.1341 34.2C23.0174 34.2 21.3674 33.6583 20.1841 32.575C19.0174 31.5083 18.4341 30.0167 18.4341 28.1C18.4341 27.0167 18.6591 25.9833 19.1091 25C19.5757 24 20.2424 23.1083 21.1091 22.325C21.4924 21.975 21.9007 21.65 22.3341 21.35C22.7674 21.0333 23.2424 20.75 23.7591 20.5C23.3757 20.35 23.0174 20.2167 22.6841 20.1C22.3507 19.9833 22.0257 19.8917 21.7091 19.825C21.4091 19.7583 21.1007 19.725 20.7841 19.725C20.3007 19.725 19.8757 19.8 19.5091 19.95C19.1424 20.0833 18.6674 20.3333 18.0841 20.7C17.9341 20.55 17.8007 20.3333 17.6841 20.05C17.5674 19.75 17.5091 19.4667 17.5091 19.2C17.5091 18.45 17.8091 17.8583 18.4091 17.425C19.0091 16.975 19.8174 16.75 20.8341 16.75C21.3841 16.75 21.9591 16.8167 22.5591 16.95C23.1591 17.0833 23.9174 17.3167 24.8341 17.65C25.7341 17.9833 26.5257 18.225 27.2091 18.375C27.8924 18.525 28.5507 18.6 29.1841 18.6L31.4591 18.55L30.4341 21.35C30.2174 21.3833 29.9174 21.4083 29.5341 21.425C29.1674 21.4417 28.7924 21.45 28.4091 21.45C28.0257 21.4333 27.6924 21.4167 27.4091 21.4C26.8591 21.4833 26.2591 21.6417 25.6091 21.875C24.9591 22.1083 24.3257 22.3917 23.7091 22.725C23.0924 23.0417 22.5341 23.4 22.0341 23.8C21.3007 24.3833 20.7257 25.0083 20.3091 25.675C19.9091 26.3417 19.7091 27.025 19.7091 27.725C19.7091 28.475 19.9424 29.1167 20.4091 29.65C20.8757 30.1833 21.5174 30.5917 22.3341 30.875C23.1674 31.175 24.1174 31.325 25.1841 31.325C26.0341 31.325 26.9591 31.2583 27.9591 31.125C28.9591 31.0083 30.0424 30.8167 31.2091 30.55L31.5591 31.6C30.6424 32.1167 29.7591 32.5667 28.9091 32.95C28.0591 33.35 27.3007 33.6583 26.6341 33.875C25.9841 34.0917 25.4841 34.2 25.1341 34.2ZM24.3091 15.325C23.4591 14.625 22.8174 14.025 22.3841 13.525C22.7674 13.1417 23.1091 12.7917 23.4091 12.475C23.7257 12.1417 24.0091 11.825 24.2591 11.525C24.4424 11.725 24.6841 11.975 24.9841 12.275C25.2841 12.575 25.6424 12.925 26.0591 13.325C25.8591 13.6083 25.6091 13.9167 25.3091 14.25C25.0257 14.5833 24.6924 14.9417 24.3091 15.325Z"/>
</mask>
<path d="M25.1341 34.2C23.0174 34.2 21.3674 33.6583 20.1841 32.575C19.0174 31.5083 18.4341 30.0167 18.4341 28.1C18.4341 27.0167 18.6591 25.9833 19.1091 25C19.5757 24 20.2424 23.1083 21.1091 22.325C21.4924 21.975 21.9007 21.65 22.3341 21.35C22.7674 21.0333 23.2424 20.75 23.7591 20.5C23.3757 20.35 23.0174 20.2167 22.6841 20.1C22.3507 19.9833 22.0257 19.8917 21.7091 19.825C21.4091 19.7583 21.1007 19.725 20.7841 19.725C20.3007 19.725 19.8757 19.8 19.5091 19.95C19.1424 20.0833 18.6674 20.3333 18.0841 20.7C17.9341 20.55 17.8007 20.3333 17.6841 20.05C17.5674 19.75 17.5091 19.4667 17.5091 19.2C17.5091 18.45 17.8091 17.8583 18.4091 17.425C19.0091 16.975 19.8174 16.75 20.8341 16.75C21.3841 16.75 21.9591 16.8167 22.5591 16.95C23.1591 17.0833 23.9174 17.3167 24.8341 17.65C25.7341 17.9833 26.5257 18.225 27.2091 18.375C27.8924 18.525 28.5507 18.6 29.1841 18.6L31.4591 18.55L30.4341 21.35C30.2174 21.3833 29.9174 21.4083 29.5341 21.425C29.1674 21.4417 28.7924 21.45 28.4091 21.45C28.0257 21.4333 27.6924 21.4167 27.4091 21.4C26.8591 21.4833 26.2591 21.6417 25.6091 21.875C24.9591 22.1083 24.3257 22.3917 23.7091 22.725C23.0924 23.0417 22.5341 23.4 22.0341 23.8C21.3007 24.3833 20.7257 25.0083 20.3091 25.675C19.9091 26.3417 19.7091 27.025 19.7091 27.725C19.7091 28.475 19.9424 29.1167 20.4091 29.65C20.8757 30.1833 21.5174 30.5917 22.3341 30.875C23.1674 31.175 24.1174 31.325 25.1841 31.325C26.0341 31.325 26.9591 31.2583 27.9591 31.125C28.9591 31.0083 30.0424 30.8167 31.2091 30.55L31.5591 31.6C30.6424 32.1167 29.7591 32.5667 28.9091 32.95C28.0591 33.35 27.3007 33.6583 26.6341 33.875C25.9841 34.0917 25.4841 34.2 25.1341 34.2ZM24.3091 15.325C23.4591 14.625 22.8174 14.025 22.3841 13.525C22.7674 13.1417 23.1091 12.7917 23.4091 12.475C23.7257 12.1417 24.0091 11.825 24.2591 11.525C24.4424 11.725 24.6841 11.975 24.9841 12.275C25.2841 12.575 25.6424 12.925 26.0591 13.325C25.8591 13.6083 25.6091 13.9167 25.3091 14.25C25.0257 14.5833 24.6924 14.9417 24.3091 15.325Z" fill="#77554C"/>
<path d="M20.1841 32.575L20.8593 31.8374L20.8589 31.837L20.1841 32.575ZM19.1091 25L18.2029 24.5771L18.1998 24.5839L19.1091 25ZM21.1091 22.325L21.7796 23.0669L21.7834 23.0635L21.1091 22.325ZM22.3341 21.35L22.9033 22.1722L22.9138 22.1649L22.9241 22.1574L22.3341 21.35ZM23.7591 20.5L24.1946 21.4002L26.2554 20.403L24.1235 19.5688L23.7591 20.5ZM22.6841 20.1L22.3537 21.0439H22.3537L22.6841 20.1ZM21.7091 19.825L21.4921 20.8012L21.5031 20.8036L21.7091 19.825ZM19.5091 19.95L19.8508 20.8898L19.8694 20.883L19.8877 20.8755L19.5091 19.95ZM18.0841 20.7L17.377 21.4071L17.941 21.9711L18.6163 21.5466L18.0841 20.7ZM17.6841 20.05L16.7521 20.4124L16.7557 20.4216L16.7594 20.4307L17.6841 20.05ZM18.4091 17.425L18.9946 18.2357L19.0019 18.2304L19.0091 18.225L18.4091 17.425ZM22.5591 16.95L22.3422 17.9262H22.3422L22.5591 16.95ZM24.8341 17.65L25.1814 16.7122L25.1758 16.7102L24.8341 17.65ZM27.2091 18.375L27.4235 17.3983H27.4235L27.2091 18.375ZM29.1841 18.6V19.6H29.1951L29.2061 19.5998L29.1841 18.6ZM31.4591 18.55L32.3981 18.8938L32.9017 17.5181L31.4371 17.5502L31.4591 18.55ZM30.4341 21.35L30.5861 22.3384L31.1701 22.2485L31.3731 21.6938L30.4341 21.35ZM29.5341 21.425L29.4906 20.4259L29.4887 20.426L29.5341 21.425ZM28.4091 21.45L28.3656 22.4491L28.3874 22.45H28.4091V21.45ZM27.4091 21.4L27.4678 20.4017L27.363 20.3956L27.2593 20.4113L27.4091 21.4ZM23.7091 22.725L24.1659 23.6146L24.1753 23.6097L24.1846 23.6047L23.7091 22.725ZM22.0341 23.8L22.6566 24.5826L22.6588 24.5809L22.0341 23.8ZM20.3091 25.675L19.4611 25.145L19.4563 25.1527L19.4516 25.1605L20.3091 25.675ZM20.4091 29.65L21.1617 28.9915L20.4091 29.65ZM22.3341 30.875L22.6728 29.934L22.6619 29.9302L22.3341 30.875ZM27.9591 31.125L27.8432 30.1317L27.8351 30.1327L27.8269 30.1338L27.9591 31.125ZM31.2091 30.55L32.1578 30.2338L31.8708 29.373L30.9863 29.5751L31.2091 30.55ZM31.5591 31.6L32.0501 32.4712L32.7686 32.0662L32.5078 31.2838L31.5591 31.6ZM28.9091 32.95L28.498 32.0384L28.4906 32.0417L28.4833 32.0452L28.9091 32.95ZM26.6341 33.875L26.325 32.9239L26.3179 32.9263L26.6341 33.875ZM24.3091 15.325L23.6734 16.0969L24.3742 16.6741L25.0162 16.0321L24.3091 15.325ZM22.3841 13.525L21.677 12.8179L21.0186 13.4763L21.6284 14.1799L22.3841 13.525ZM23.4091 12.475L22.6841 11.7862L22.6831 11.7873L23.4091 12.475ZM24.2591 11.525L24.9962 10.8493L24.2232 10.006L23.4909 10.8848L24.2591 11.525ZM26.0591 13.325L26.8761 13.9017L27.372 13.1991L26.7516 12.6036L26.0591 13.325ZM25.3091 14.25L24.5658 13.581L24.5563 13.5916L24.5471 13.6024L25.3091 14.25ZM25.1341 33.2C23.1857 33.2 21.8058 32.7039 20.8593 31.8374L19.5088 33.3126C20.929 34.6128 22.8491 35.2 25.1341 35.2V33.2ZM20.8589 31.837C19.9427 30.9993 19.4341 29.8005 19.4341 28.1H17.4341C17.4341 30.2329 18.0922 32.0173 19.5093 33.313L20.8589 31.837ZM19.4341 28.1C19.4341 27.16 19.6283 26.2686 20.0184 25.4161L18.1998 24.5839C17.6899 25.698 17.4341 26.8733 17.4341 28.1H19.4341ZM20.0153 25.4229C20.4222 24.5509 21.0061 23.766 21.7796 23.0669L20.4385 21.5831C19.4787 22.4507 18.7293 23.4491 18.2029 24.5771L20.0153 25.4229ZM21.7834 23.0635C22.1331 22.7442 22.5063 22.4471 22.9033 22.1722L21.7649 20.5278C21.2952 20.8529 20.8518 21.2058 20.4348 21.5865L21.7834 23.0635ZM22.9241 22.1574C23.3056 21.8786 23.7284 21.6257 24.1946 21.4002L23.3235 19.5998C22.7564 19.8743 22.2292 20.1881 21.7441 20.5426L22.9241 22.1574ZM24.1235 19.5688C23.7307 19.415 23.3609 19.2774 23.0144 19.1561L22.3537 21.0439C22.674 21.1559 23.0208 21.285 23.3947 21.4312L24.1235 19.5688ZM23.0144 19.1561C22.6441 19.0265 22.2775 18.9228 21.9151 18.8465L21.5031 20.8036C21.774 20.8606 22.0574 20.9401 22.3537 21.0439L23.0144 19.1561ZM21.926 18.8488C21.5527 18.7658 21.1715 18.725 20.7841 18.725V20.725C21.03 20.725 21.2655 20.7508 21.4922 20.8012L21.926 18.8488ZM20.7841 18.725C20.1987 18.725 19.6406 18.8158 19.1304 19.0245L19.8877 20.8755C20.1109 20.7842 20.4028 20.725 20.7841 20.725V18.725ZM19.1673 19.0102C18.702 19.1794 18.1571 19.473 17.5519 19.8534L18.6163 21.5466C19.1777 21.1937 19.5828 20.9873 19.8508 20.8898L19.1673 19.0102ZM18.7912 19.9929C18.7663 19.968 18.6957 19.8803 18.6088 19.6693L16.7594 20.4307C16.9058 20.7863 17.1019 21.132 17.377 21.4071L18.7912 19.9929ZM18.6161 19.6876C18.5353 19.4798 18.5091 19.3199 18.5091 19.2H16.5091C16.5091 19.6134 16.5995 20.0202 16.7521 20.4124L18.6161 19.6876ZM18.5091 19.2C18.5091 18.766 18.659 18.478 18.9946 18.2357L17.8236 16.6143C16.9592 17.2386 16.5091 18.134 16.5091 19.2H18.5091ZM19.0091 18.225C19.3837 17.944 19.9578 17.75 20.8341 17.75V15.75C19.677 15.75 18.6344 16.006 17.8091 16.625L19.0091 18.225ZM20.8341 17.75C21.3032 17.75 21.8052 17.8069 22.3422 17.9262L22.776 15.9738C22.113 15.8265 21.465 15.75 20.8341 15.75V17.75ZM22.3422 17.9262C22.8827 18.0463 23.5958 18.2638 24.4923 18.5898L25.1758 16.7102C24.2391 16.3696 23.4355 16.1204 22.776 15.9738L22.3422 17.9262ZM24.4868 18.5877C25.4154 18.9317 26.2531 19.189 26.9947 19.3517L27.4235 17.3983C26.7984 17.261 26.0528 17.035 25.1814 16.7123L24.4868 18.5877ZM26.9947 19.3517C27.7412 19.5156 28.4716 19.6 29.1841 19.6V17.6C28.6299 17.6 28.0436 17.5344 27.4235 17.3983L26.9947 19.3517ZM29.2061 19.5998L31.4811 19.5498L31.4371 17.5502L29.1621 17.6002L29.2061 19.5998ZM30.52 18.2062L29.495 21.0062L31.3731 21.6938L32.3981 18.8938L30.52 18.2062ZM30.282 20.3616C30.1183 20.3868 29.8602 20.4099 29.4906 20.4259L29.5775 22.4241C29.9746 22.4068 30.3165 22.3799 30.5861 22.3384L30.282 20.3616ZM29.4887 20.426C29.1378 20.442 28.7779 20.45 28.4091 20.45V22.45C28.8069 22.45 29.197 22.4414 29.5795 22.424L29.4887 20.426ZM28.4525 20.4509C28.0726 20.4344 27.7446 20.418 27.4678 20.4017L27.3504 22.3983C27.6402 22.4153 27.9789 22.4322 28.3656 22.4491L28.4525 20.4509ZM27.2593 20.4113C26.632 20.5063 25.9683 20.6836 25.2712 20.9338L25.9469 22.8162C26.5499 22.5998 27.0861 22.4603 27.5589 22.3887L27.2593 20.4113ZM25.2712 20.9338C24.5731 21.1844 23.8938 21.4884 23.2336 21.8453L24.1846 23.6047C24.7577 23.2949 25.345 23.0323 25.9469 22.8162L25.2712 20.9338ZM23.2523 21.8354C22.581 22.1801 21.9657 22.5741 21.4094 23.0191L22.6588 24.5809C23.1025 24.2259 23.6038 23.9032 24.1659 23.6146L23.2523 21.8354ZM21.4116 23.0174C20.6059 23.6583 19.9483 24.3654 19.4611 25.145L21.1571 26.205C21.5032 25.6512 21.9956 25.1084 22.6566 24.5826L21.4116 23.0174ZM19.4516 25.1605C18.9689 25.9649 18.7091 26.8242 18.7091 27.725H20.7091C20.7091 27.2258 20.8492 26.7184 21.1666 26.1895L19.4516 25.1605ZM18.7091 27.725C18.7091 28.7018 19.0205 29.5816 19.6565 30.3085L21.1617 28.9915C20.8643 28.6517 20.7091 28.2482 20.7091 27.725H18.7091ZM19.6565 30.3085C20.2602 30.9984 21.0615 31.4919 22.0063 31.8198L22.6619 29.9302C21.9734 29.6914 21.4913 29.3683 21.1617 28.9915L19.6565 30.3085ZM21.9954 31.8159C22.957 32.1621 24.0249 32.325 25.1841 32.325V30.325C24.21 30.325 23.3778 30.1879 22.6728 29.9341L21.9954 31.8159ZM25.1841 32.325C26.0855 32.325 27.0553 32.2544 28.0912 32.1162L27.8269 30.1338C26.8629 30.2623 25.9826 30.325 25.1841 30.325V32.325ZM28.075 32.1183C29.1169 31.9967 30.2363 31.7981 31.4319 31.5249L30.9863 29.5751C29.8485 29.8352 28.8013 30.02 27.8432 30.1317L28.075 32.1183ZM30.2604 30.8662L30.6104 31.9162L32.5078 31.2838L32.1578 30.2338L30.2604 30.8662ZM31.0681 30.7288C30.1742 31.2327 29.3176 31.6688 28.498 32.0384L29.3202 33.8616C30.2006 33.4645 31.1107 33.0007 32.0501 32.4712L31.0681 30.7288ZM28.4833 32.0452C27.6593 32.4329 26.9411 32.7237 26.325 32.924L26.9432 34.826C27.6604 34.5929 28.4588 34.2671 29.3349 33.8548L28.4833 32.0452ZM26.3179 32.9263C25.6917 33.135 25.3172 33.2 25.1341 33.2V35.2C25.651 35.2 26.2765 35.0483 26.9503 34.8237L26.3179 32.9263ZM24.9448 14.5531C24.1136 13.8686 23.5204 13.3092 23.1398 12.8701L21.6284 14.1799C22.1145 14.7408 22.8045 15.3814 23.6734 16.0969L24.9448 14.5531ZM23.0912 14.2321C23.4794 13.8439 23.8276 13.4873 24.135 13.1627L22.6831 11.7873C22.3906 12.096 22.0554 12.4395 21.677 12.8179L23.0912 14.2321ZM24.1341 13.1637C24.4631 12.8174 24.7613 12.4844 25.0273 12.1652L23.4909 10.8848C23.2569 11.1656 22.9884 11.466 22.6841 11.7862L24.1341 13.1637ZM23.5219 12.2007C23.7189 12.4156 23.9717 12.6769 24.277 12.9821L25.6912 11.5679C25.3964 11.2731 25.166 11.0344 24.9962 10.8493L23.5219 12.2007ZM24.277 12.9821C24.5831 13.2883 24.9466 13.6432 25.3666 14.0464L26.7516 12.6036C26.3382 12.2068 25.985 11.8617 25.6912 11.5679L24.277 12.9821ZM25.2421 12.7483C25.0703 12.9917 24.8466 13.269 24.5658 13.581L26.0524 14.919C26.3715 14.5643 26.6479 14.2249 26.8761 13.9017L25.2421 12.7483ZM24.5471 13.6024C24.2848 13.911 23.9705 14.2493 23.602 14.6179L25.0162 16.0321C25.4143 15.634 25.7667 15.2557 26.071 14.8976L24.5471 13.6024Z" fill="#FFFBF8" mask="url(#path-3-outside-1_9_370)"/>
</svg>
