<svg width="39" height="37" viewBox="0 0 39 37" fill="none" xmlns="http://www.w3.org/2000/svg">
<path d="M37.9143 36H1.34286" stroke="#E6DAC8" stroke-width="2" stroke-linecap="round"/>
<path d="M1.34286 15.8857L8.77228 10.0735M37.9143 15.8857L23.0555 4.26126C21.0519 2.69388 18.2052 2.69388 16.2017 4.26126L14.7719 5.37986" stroke="#E6DAC8" stroke-width="2" stroke-linecap="round"/>
<path d="M26.0286 5.82857V2.17143C26.0286 1.66649 26.438 1.25714 26.9429 1.25714H31.5143C32.0192 1.25714 32.4286 1.66649 32.4286 2.17143V11.3143" stroke="#E6DAC8" stroke-width="2" stroke-linecap="round"/>
<path d="M5.00002 35.0857V13.1429" stroke="#E6DAC8" stroke-width="2" stroke-linecap="round"/>
<path d="M34.2571 13.1429V20.1646M34.2571 35.0857V27.1863" stroke="#E6DAC8" stroke-width="2" stroke-linecap="round"/>
<path d="M25.1143 36V26.8571C25.1143 24.2712 25.1143 22.9782 24.311 22.1747C23.5075 21.3714 22.2145 21.3714 19.6286 21.3714C17.0426 21.3714 15.7496 21.3714 14.9462 22.1747M14.1429 36V26.8571" stroke="#E6DAC8" stroke-width="2" stroke-linecap="round" stroke-linejoin="round"/>
<path d="M23.2857 13.1429C23.2857 15.1627 21.6484 16.8 19.6286 16.8C17.6087 16.8 15.9714 15.1627 15.9714 13.1429C15.9714 11.1231 17.6087 9.48572 19.6286 9.48572C21.6484 9.48572 23.2857 11.1231 23.2857 13.1429Z" stroke="#E6DAC8" stroke-width="2"/>
</svg>
