<svg viewBox="0 0 512 512" xmlns="http://www.w3.org/2000/svg"><path d="m260.36 0q22.89 1.48 42.17 12.64 5.73 3.32 16.2 11.66 71.2 56.77 142.4 113.52 11.22 8.95 15.19 13.06 17.89 18.47 21.39 44.2.78 5.67.76 19.91-.2 138.81-.19 187.01 0 7.34-.13 12.21-.2 7.03-1.11 12.12-7.46 41.86-40.76 66.21-19.48 14.25-44.4 18.09-6.86 1.06-19.94 1.07-32.07.03-39.94.03c-22.78-.03-43.33-16.31-47.89-38.98q-1.11-5.52-1.11-20.01.01-67.67.01-76.65 0-8.88-1.42-11.94-2.08-4.48-6.95-6.24-2.79-1.01-8.86-1-28.27.04-56.54 0-9.12-.02-12.28 1.42-4.65 2.12-6.4 7.18-.94 2.7-.91 9.1.05 13.58 0 27.46-.02 7.76-1.32 11.22c-3.96 10.64-16.43 15.88-26.92 11.25q-7.57-3.34-10.75-11.1-1.47-3.59-1.42-10.42.02-2.21.05-19.18.03-16.6.33-19.12 2.3-19.22 15.13-32.17 15.54-15.68 38.53-15.95 22.13-.26 66.97 0 21.64.13 37.5 15.62 11.97 11.7 14.91 28.03.97 5.37.97 19.92 0 50.65-.01 82.21 0 5.38 4.44 7.86 2.26 1.26 8.01 1.24 40.81-.12 41.47-.12 25.6-.18 43.33-17.74 13.72-13.57 17-32.92.91-5.32.89-19.95-.04-23.72 0-194.5 0-18.7-14.91-30.6-87.78-70.08-157.45-125.55-3.63-2.89-11.35-6.01c-13.01-5.24-27.83-4.87-40.47.68q-5.7 2.5-16.78 10.79-34.6 25.87-40 29.98-8.59 6.53-12.49 7.37-8.5 1.82-15.55-2.19c-10.19-5.8-13.1-19.48-6.84-29.09q2-3.07 9.72-8.65 21.5-15.55 42.93-31.21 10.92-7.98 16.66-11.01 17.89-9.42 38.67-10.76z"/><path d="m220.52 512h-109.78q-50.9-3.44-79.37-43.89-17.54-24.93-17.62-57.36-.26-116.01-.26-195.76 0-13.76.97-19.94 4.58-29.16 26.4-47.96 2.41-2.08 18.54-14 4.36-3.22 7.47-3.87 5.05-1.05 9.42.34 14.33 4.56 14.92 19.7.16 4.26-2.69 9.87-1.56 3.06-6.37 6.44-.71.5-9.62 7.09-6.18 4.56-9.04 7.74-9.5 10.6-9.52 25.17-.2 141.22.04 204.22.1 25.82 17.94 43.48 13.66 13.53 31.89 16.84 5.78 1.05 19.93 1.04 70.24-.05 93.48-.01.34 0 .88.27.45.22.95.23c6.76.2 13.02 3.74 16.58 9.72 7.8 13.08-.43 28.43-15.14 30.64z"/></svg>