<?xml version="1.0" encoding="UTF-8" standalone="no"?>
<!DOCTYPE svg PUBLIC "-//W3C//DTD SVG 1.1//EN" "http://www.w3.org/Graphics/SVG/1.1/DTD/svg11.dtd">
<svg xmlns="http://www.w3.org/2000/svg" version="1.1" viewBox="0.00 0.00 512.00 512.00">
<path fill="#000000" d="
  M 417.16 0.00
  L 419.10 0.00
  Q 426.74 1.82 426.74 11.25
  Q 426.76 182.77 426.74 354.30
  C 426.74 360.35 426.09 364.64 420.24 366.73
  C 364.89 386.49 312.26 412.44 261.49 441.91
  C 257.07 444.48 251.58 444.32 248.94 439.70
  Q 247.49 437.16 247.49 430.56
  Q 247.52 265.31 247.49 100.05
  Q 247.49 99.54 247.02 99.34
  C 224.03 89.90 200.07 85.23 175.23 85.48
  Q 112.72 86.11 51.70 100.45
  Q 51.25 100.56 51.25 101.02
  L 51.25 457.54
  Q 51.25 458.45 52.14 458.25
  Q 107.38 445.66 164.50 443.94
  C 196.51 442.98 225.58 447.21 255.71 459.95
  Q 256.18 460.15 256.66 459.99
  C 286.91 449.55 316.68 443.52 348.81 443.88
  Q 405.30 444.51 459.77 457.78
  Q 460.75 458.02 460.75 457.01
  L 460.75 101.27
  A 0.63 0.63 0.0 0 0 460.24 100.65
  C 455.78 99.81 449.14 99.23 446.10 96.75
  C 439.12 91.06 445.12 80.40 453.68 82.08
  Q 461.93 83.69 470.19 85.33
  C 476.00 86.48 477.75 90.23 477.75 96.05
  Q 477.74 271.50 477.76 446.95
  C 477.76 452.08 478.21 460.21 477.88 466.89
  C 477.36 477.73 471.88 478.84 462.33 476.19
  C 424.51 465.70 384.15 461.24 344.99 460.95
  C 317.88 460.74 290.55 466.20 265.02 475.30
  Q 264.50 475.48 264.50 476.03
  L 264.50 494.26
  A 0.74 0.74 0.0 0 0 265.24 495.00
  Q 363.52 494.99 461.54 495.01
  Q 472.01 495.01 476.81 493.55
  Q 489.62 489.67 493.51 476.97
  Q 495.01 472.09 495.01 460.87
  Q 494.99 300.38 495.00 139.89
  Q 495.00 134.71 496.27 132.35
  C 500.31 124.86 511.06 127.97 512.00 136.31
  L 512.00 470.30
  C 510.49 493.92 493.43 510.80 469.93 512.00
  L 41.94 512.00
  Q 11.00 509.31 1.78 480.84
  C 0.69 477.47 0.52 473.81 0.00 470.18
  L 0.00 136.19
  Q 2.92 125.51 11.93 129.12
  C 14.75 130.26 16.99 133.14 16.99 136.06
  Q 17.02 297.34 16.99 458.62
  Q 16.99 472.12 18.57 477.22
  Q 22.46 489.72 35.39 493.61
  Q 40.10 495.02 49.76 495.02
  Q 148.25 494.98 246.75 495.01
  A 0.75 0.75 0.0 0 0 247.50 494.26
  L 247.50 475.55
  Q 247.50 475.02 247.01 474.82
  C 224.31 465.51 200.75 460.79 176.25 460.98
  Q 110.89 461.48 47.35 476.92
  C 39.38 478.85 34.02 476.10 34.02 466.93
  Q 33.97 281.47 34.02 96.00
  C 34.02 88.02 37.72 86.20 45.07 84.42
  C 88.31 73.96 132.29 68.75 176.81 68.54
  Q 220.66 68.34 259.44 86.06
  C 263.50 87.92 264.50 91.43 264.50 95.93
  Q 264.50 257.72 264.50 419.66
  A 0.46 0.46 0.0 0 0 265.19 420.06
  C 311.50 394.08 359.04 370.77 409.01 352.47
  Q 409.50 352.29 409.50 351.76
  L 409.50 23.24
  Q 409.50 22.85 409.66 22.48
  Q 409.80 22.14 409.75 21.75
  A 0.57 0.57 0.0 0 0 408.97 21.30
  C 367.17 38.64 323.46 60.99 287.58 83.09
  C 276.08 90.17 267.53 75.63 277.52 69.56
  C 322.07 42.48 368.40 18.41 417.16 0.00
  Z"
/>
<path fill="#000000" d="
  M 302.22 144.24
  C 292.62 148.91 284.76 134.10 295.41 128.72
  C 320.18 116.22 344.39 104.45 369.15 95.59
  Q 374.11 93.81 377.05 94.29
  C 384.77 95.55 386.35 107.34 379.20 109.97
  C 352.76 119.73 327.53 131.92 302.22 144.24
  Z"
/>
<path fill="#000000" d="
  M 291.70 183.19
  C 293.19 180.99 294.79 180.26 297.06 179.11
  Q 325.32 164.85 354.46 152.49
  C 361.90 149.34 374.23 143.64 378.72 145.82
  C 387.09 149.88 384.37 159.89 376.58 162.49
  C 352.38 170.58 328.79 182.33 305.96 193.66
  Q 301.00 196.13 298.11 196.04
  C 292.07 195.86 287.92 188.78 291.70 183.19
  Z"
/>
<path fill="#000000" d="
  M 206.00 158.20
  C 211.55 159.35 214.63 165.02 212.53 170.02
  C 210.30 175.31 205.46 175.37 200.12 174.36
  C 166.17 167.97 130.13 170.87 96.43 178.78
  C 84.68 181.54 81.40 165.03 91.74 162.48
  C 128.72 153.36 168.61 150.48 206.00 158.20
  Z"
/>
<path fill="#000000" d="
  M 293.31 245.38
  C 288.67 241.39 289.47 234.18 295.07 231.33
  C 318.59 219.39 344.99 206.33 370.92 197.42
  C 384.13 192.87 388.97 209.31 377.00 213.25
  Q 371.48 215.07 359.39 220.24
  Q 332.11 231.89 305.54 245.06
  C 301.15 247.23 297.06 248.61 293.31 245.38
  Z"
/>
<path fill="#000000" d="
  M 206.43 209.59
  C 213.43 211.22 215.14 218.94 210.63 223.87
  C 208.16 226.58 204.77 226.49 201.03 225.75
  C 167.67 219.13 131.62 221.86 98.49 229.57
  Q 94.53 230.50 92.47 230.14
  C 83.44 228.59 83.20 215.84 91.74 213.71
  C 127.69 204.72 170.01 201.12 206.43 209.59
  Z"
/>
<path fill="#000000" d="
  M 302.74 297.40
  C 294.37 301.53 286.51 292.18 291.97 285.09
  Q 293.28 283.40 297.94 281.05
  C 321.89 269.01 346.10 257.09 370.68 248.70
  Q 374.31 247.46 376.46 247.70
  C 381.41 248.25 384.46 252.78 383.64 257.57
  C 382.95 261.63 380.21 263.25 376.30 264.71
  C 351.24 274.07 326.73 285.57 302.74 297.40
  Z"
/>
<path fill="#000000" d="
  M 96.74 281.24
  C 84.98 284.13 80.81 267.68 92.25 264.78
  Q 133.72 254.23 177.70 256.74
  C 187.29 257.29 198.22 258.52 206.67 260.82
  C 217.54 263.78 214.38 279.38 201.41 277.01
  C 166.69 270.66 130.94 272.86 96.74 281.24
  Z"
/>
<path fill="#000000" d="
  M 302.50 348.67
  C 293.97 352.80 286.34 342.86 292.34 335.84
  Q 293.56 334.41 297.68 332.35
  Q 324.40 318.99 351.88 307.21
  Q 367.64 300.46 373.07 299.08
  C 383.70 296.39 388.44 311.47 377.68 315.42
  C 351.49 325.04 327.12 336.76 302.50 348.67
  Z"
/>
<path fill="#000000" d="
  M 96.25 332.54
  C 85.41 335.16 80.55 319.13 92.30 316.16
  C 127.84 307.17 166.49 304.36 202.81 311.15
  Q 208.23 312.16 210.26 313.88
  C 217.26 319.81 211.26 330.01 202.51 328.48
  Q 187.73 325.88 181.92 325.44
  Q 138.99 322.23 96.25 332.54
  Z"
/>
<path fill="#000000" d="
  M 89.46 382.52
  C 84.47 379.37 84.05 372.56 88.63 368.97
  Q 90.46 367.53 95.25 366.42
  C 124.58 359.62 155.21 356.92 185.25 359.68
  Q 200.50 361.09 207.50 363.46
  C 215.59 366.20 214.88 378.49 206.07 379.70
  Q 204.39 379.93 200.45 379.20
  C 165.59 372.76 128.71 375.77 94.51 384.08
  Q 92.65 384.54 89.46 382.52
  Z"
/>
</svg>
