<?xml version="1.0" encoding="UTF-8" standalone="no"?>
<!DOCTYPE svg PUBLIC "-//W3C//DTD SVG 1.1//EN" "http://www.w3.org/Graphics/SVG/1.1/DTD/svg11.dtd">
<svg xmlns="http://www.w3.org/2000/svg" version="1.1" viewBox="0.00 0.00 512.00 512.00">
<path fill="#77554c" d="
  M 147.36 255.85
  Q 83.22 191.76 19.08 127.63
  C 6.45 115.00 3.77 95.72 13.00 80.62
  Q 16.24 75.32 23.81 68.06
  Q 30.05 62.07 35.98 55.98
  C 48.41 43.21 67.84 40.55 83.14 49.67
  Q 87.47 52.25 95.74 60.53
  Q 180.17 145.21 263.77 228.59
  C 279.06 243.84 279.10 268.05 264.07 283.07
  Q 176.50 370.60 91.17 455.92
  C 75.41 471.68 51.71 471.72 35.86 455.90
  Q 26.89 446.95 18.87 438.88
  C 3.51 423.44 3.90 399.55 18.97 384.48
  Q 83.36 320.10 147.36 256.16
  A 0.23 0.22 -46.0 0 0 147.36 255.85
  Z
  M 75.16 62.96
  C 65.94 57.35 54.43 59.30 46.96 66.92
  Q 39.45 74.58 31.96 81.86
  C 26.72 86.95 23.40 91.89 23.07 99.11
  C 22.69 107.58 26.18 112.91 32.23 118.93
  Q 97.49 183.92 164.03 250.71
  C 165.97 252.66 166.72 255.71 165.84 258.31
  Q 165.19 260.22 162.15 263.26
  Q 98.07 327.36 34.55 390.85
  Q 26.88 398.51 25.46 401.43
  C 21.36 409.78 22.43 420.33 29.06 427.09
  Q 38.21 436.40 47.28 445.37
  C 56.35 454.33 70.56 454.62 79.53 445.65
  Q 173.83 351.36 252.79 272.46
  C 259.90 265.35 262.03 254.55 257.32 245.65
  Q 255.49 242.20 250.50 237.22
  Q 166.65 153.64 82.15 68.86
  Q 77.96 64.67 75.16 62.96
  Z"
/>
<path fill="#77554c" d="
  M 376.27 255.59
  Q 312.20 191.55 247.96 127.32
  C 235.38 114.73 233.20 95.40 242.40 80.20
  Q 245.27 75.46 253.34 67.74
  Q 259.17 62.15 265.29 55.89
  C 272.77 48.23 283.11 43.94 293.87 44.28
  Q 309.01 44.75 320.42 56.15
  Q 402.84 138.55 488.13 223.72
  Q 496.65 232.23 498.92 236.07
  C 508.20 251.82 505.68 270.68 492.77 283.60
  Q 409.45 366.93 319.73 456.56
  C 307.34 468.93 288.18 471.26 273.24 462.37
  Q 268.20 459.37 260.77 451.70
  Q 254.35 445.07 247.90 438.67
  C 232.63 423.51 233.40 399.19 248.06 384.55
  Q 312.24 320.52 376.27 256.35
  Q 376.65 255.97 376.27 255.59
  Z"
/>
</svg>
