<svg height="1509" viewBox="0 0 1468 1509" width="1468" xmlns="http://www.w3.org/2000/svg"><g fill="none"><path d="m534.5 1052.2-206.3 38.8c-6.5 1.2-12.8-3.1-14-9.6l-38.8-206.3c-1.2-6.5 3-12.8 9.6-14l206.3-38.8c6.5-1.2 12.8 3.1 14 9.6l38.8 206.3c1.2 6.5-3.1 12.8-9.6 14z" stroke="#fff" stroke-linecap="round" stroke-linejoin="round" stroke-width="2"/><path d="m287.5 883.8 98.2-18.5" stroke="#fff" stroke-linecap="round" stroke-linejoin="round" stroke-width="2"/><path d="m292.3 909.1 98.1-18.4" stroke="#fff" stroke-linecap="round" stroke-linejoin="round" stroke-width="2"/><path d="m297.1 934.5 98.1-18.4" stroke="#fff" stroke-linecap="round" stroke-linejoin="round" stroke-width="2"/><path d="m301.9 959.9 98.1-18.5" stroke="#fff" stroke-linecap="round" stroke-linejoin="round" stroke-width="2"/><path d="m306.6 985.2 98.1-18.4" stroke="#fff" stroke-linecap="round" stroke-linejoin="round" stroke-width="2"/><path d="m311.4 1010.6 98.1-18.4" stroke="#fff" stroke-linecap="round" stroke-linejoin="round" stroke-width="2"/><path d="m316.2 1036 98.1-18.5" stroke="#fff" stroke-linecap="round" stroke-linejoin="round" stroke-width="2"/><path d="m320.9 1061.3 98.2-18.4" stroke="#fff" stroke-linecap="round" stroke-linejoin="round" stroke-width="2"/><path d="m1328 139.9-59.3 201.4c-1.9 6.3-8.5 10-14.9 8.1l-201.4-59.2c-6.3-1.9-10-8.6-8.1-14.9l59.2-201.4c1.9-6.4 8.6-10 14.9-8.2l201.4 59.3c6.4 1.8 10 8.5 8.2 14.9z" stroke="#fff" stroke-linecap="round" stroke-linejoin="round" stroke-width="2"/><path d="m1065.7 283.3 28.1-95.8" stroke="#fff" stroke-linecap="round" stroke-linejoin="round" stroke-width="2"/><path d="m1090.4 290.6 28.2-95.8" stroke="#fff" stroke-linecap="round" stroke-linejoin="round" stroke-width="2"/><path d="m1115.2 297.8 28.2-95.7" stroke="#fff" stroke-linecap="round" stroke-linejoin="round" stroke-width="2"/><path d="m1139.9 305.1 28.2-95.8" stroke="#fff" stroke-linecap="round" stroke-linejoin="round" stroke-width="2"/><path d="m1164.7 312.4 28.2-95.8" stroke="#fff" stroke-linecap="round" stroke-linejoin="round" stroke-width="2"/><path d="m1189.5 319.7 28.1-95.8" stroke="#fff" stroke-linecap="round" stroke-linejoin="round" stroke-width="2"/><path d="m1214.2 327 28.2-95.8" stroke="#fff" stroke-linecap="round" stroke-linejoin="round" stroke-width="2"/><path d="m1239 334.3 28.2-95.8" stroke="#fff" stroke-linecap="round" stroke-linejoin="round" stroke-width="2"/><path d="m996.6 923.2-172.2-120.1c-5.4-3.8-6.8-11.2-3-16.7l120.1-172.2c3.8-5.4 11.3-6.8 16.7-3l172.2 120.1c5.4 3.8 6.8 11.3 3 16.7l-120.1 172.2c-3.8 5.4-11.2 6.8-16.7 3z" stroke="#fff" stroke-linecap="round" stroke-linejoin="round" stroke-width="2"/><path d="m943.8 628.9 81.9 57.2" stroke="#fff" stroke-linecap="round" stroke-linejoin="round" stroke-width="2"/><path d="m929.1 650.1 81.9 57.1" stroke="#fff" stroke-linecap="round" stroke-linejoin="round" stroke-width="2"/><path d="m914.3 671.3 81.9 57.1" stroke="#fff" stroke-linecap="round" stroke-linejoin="round" stroke-width="2"/><path d="m899.5 692.5 81.9 57.1" stroke="#fff" stroke-linecap="round" stroke-linejoin="round" stroke-width="2"/><path d="m884.8 713.6 81.9 57.1" stroke="#fff" stroke-linecap="round" stroke-linejoin="round" stroke-width="2"/><path d="m870 734.8 81.9 57.1" stroke="#fff" stroke-linecap="round" stroke-linejoin="round" stroke-width="2"/><path d="m855.2 756 81.9 57.1" stroke="#fff" stroke-linecap="round" stroke-linejoin="round" stroke-width="2"/><path d="m840.5 777.2 81.9 57.1" stroke="#fff" stroke-linecap="round" stroke-linejoin="round" stroke-width="2"/><path d="m424.4 444.2c0 107.3-87 194.4-194.4 194.4s-194.4-87.1-194.4-194.4c0-107.4 87-194.4 194.4-194.4s194.4 87 194.4 194.4z" stroke="#fff" stroke-linecap="round" stroke-linejoin="round" stroke-width="2"/><path d="m763.8 618.6c0 71.8-58.2 129.9-130 129.9-71.7 0-129.9-58.1-129.9-129.9s58.2-130 129.9-130c71.8 0 130 58.2 130 130z" stroke="#fff" stroke-linecap="round" stroke-linejoin="round" stroke-width="2"/><path d="m1284.9 1202c0 107.4-87.1 194.4-194.4 194.4-107.4 0-194.4-87-194.4-194.4 0-107.3 87-194.3 194.4-194.3 107.3 0 194.4 87 194.4 194.3z" stroke="#fff" stroke-linecap="round" stroke-linejoin="round" stroke-width="2"/><path d="m1256.9 1248c0 37.5-30.4 67.9-67.9 67.9s-67.9-30.4-67.9-67.9 30.4-67.8 67.9-67.8 67.9 30.3 67.9 67.8z" stroke="#fff" stroke-linecap="round" stroke-linejoin="round" stroke-width="2"/></g><path d="m415.3 753-2.7 6.4c-1.8 4.2-1.7 9 .4 13.1 16.2 32.5 88.6 181.4 110.3 286.6 2 9.9 12.7 15.1 21.5 10.5 33.5-17.7 112.2-53.2 217.5-62.7 2.7-.2 5.2-1.1 7.4-2.7 19.5-14.1 123.1-86.7 210-101.6 9-1.6 14.6-10.9 11.8-19.9l-86.6-280.5c-2.5-8.1-11-12.6-18.9-10l-461.5 152.2c-4.2 1.4-7.5 4.5-9.2 8.6z" fill="#77554c" opacity=".3"/><path d="m380.8 715.7-3 6.8c-1.9 4.5-1.8 9.6.5 13.9 17.6 34.5 96.5 192.5 120 304.2 2.2 10.5 13.9 16 23.4 11.1 36.6-18.8 122.2-56.5 236.8-66.5 2.8-.3 5.6-1.3 8-2.9 21.2-15 134-92 228.5-107.9 9.8-1.6 16-11.5 13-21l-94.3-297.6c-2.7-8.7-12-13.4-20.6-10.7l-502.3 161.5c-4.5 1.5-8.2 4.8-10 9.1z" fill="#77554c"/><path d="m889 473.5c34.5 87.2 66.5 185.4 91.3 294.1 6.2 27.1 11.6 53.6 16.5 79.7 1.5 8.4-3.9 16.4-12.3 18q-7.6 1.5-15.5 3.3c-39.8 9.2-74.4 22.4-103.5 36.3q11.8-215.7 23.5-431.4z" fill="#e6e6e7"/><path d="m372.8 711.3c-2.5-4.5-2.6-9.9-.1-14.4q1.9-3.6 4.5-7.3c10.9-15.8 25.1-24.1 33.7-28.2 34.7 122.9 93.3 242.6 128 365.5l-20.6 4.2c-7.6 1.6-15.1-2.9-17.3-10.4-27.7-95.2-63.2-190.7-116.8-289q-5.6-10.3-11.4-20.4z" fill="#e6e6e7"/><path d="m386.8 685.5 119.4 327.8c4.6 12.7 19 19.2 31.6 14 27.7-11.3 59.9-22.4 96.3-31.4 45.4-11.2 86.5-16.6 121.3-18.9 4.9-.4 9.6-2.2 13.4-5.3 33.9-27.5 77.2-57.8 130.5-85.4 31.6-16.3 61.7-29.1 89.4-39.2 12.2-4.4 18.7-17.8 14.6-30.2q-58.2-174.9-116.4-349.7c-4.2-12.8-18.1-19.6-30.7-15.1-27.8 9.7-58.7 22.7-91.3 40.2-49.5 26.6-88.8 56.1-118.4 82-4 3.4-8.9 5.5-14.2 5.9-34.6 2.1-80.6 8.7-131.9 26.5-42.6 14.8-77.3 33.3-103.9 50.3-9.6 6-13.6 17.9-9.7 28.5z" fill="#fff"/><path d="m819.9 859.3s44.2-38.8 91.5-43.5" fill="#fff" stroke="#77554c" stroke-linecap="round" stroke-linejoin="round" stroke-width="4.3"/><path d="m841.9 855.9s29.4-18.6 48.1-23.8" fill="#fff" stroke="#77554c" stroke-linecap="round" stroke-linejoin="round" stroke-width="4.3"/><path d="m727.2 572.3s44.2-38.8 91.5-43.5" fill="#fff" stroke="#77554c" stroke-linecap="round" stroke-linejoin="round" stroke-width="4.3"/><path d="m749.1 568.9s29.5-18.6 48.1-23.8" fill="#fff" stroke="#77554c" stroke-linecap="round" stroke-linejoin="round" stroke-width="4.3"/><path d="m527.4 722-38.8 17.3c-6.5 3-14.1 0-17-6.5l-19-42.5c-3-6.5 0-14.2 6.5-17.1l38.7-17.3c6.5-2.9 14.2 0 17.1 6.5l19 42.6c2.9 6.5 0 14.1-6.5 17z" style="opacity:.5;fill:#c39b7b;stroke:#77554c;stroke-linecap:round;stroke-linejoin:round;stroke-width:4.3"/><path d="m599.9 668.9c0 9.6-7.8 17.5-17.5 17.5-9.6 0-17.4-7.9-17.4-17.5s7.8-17.5 17.4-17.5c9.7 0 17.5 7.9 17.5 17.5z" style="opacity:.5;fill:#c39b7b;stroke:#77554c;stroke-linecap:round;stroke-linejoin:round;stroke-width:4.3"/><path d="m572.2 917.7c-1.6 9.5-10.6 15.9-20.1 14.2-9.5-1.6-15.9-10.6-14.3-20.1 1.7-9.5 10.7-15.9 20.2-14.3 9.5 1.7 15.9 10.7 14.2 20.2z" style="opacity:.5;fill:#c39b7b;stroke:#77554c;stroke-linecap:round;stroke-linejoin:round;stroke-width:4.3"/><path d="m586.1 928.6c-1.7 9.5-10.7 15.8-20.2 14.2s-15.9-10.7-14.2-20.2c1.6-9.5 10.6-15.9 20.1-14.2 9.5 1.6 15.9 10.7 14.3 20.2z" style="opacity:.5;fill:#c39b7b;stroke:#77554c;stroke-linecap:round;stroke-linejoin:round;stroke-width:4.3"/><path d="m622.8 647.6c0 13.5-10.9 24.4-24.4 24.4s-24.5-10.9-24.5-24.4 11-24.5 24.5-24.5 24.4 11 24.4 24.5z" style="opacity:.5;fill:#c39b7b;stroke:#77554c;stroke-linecap:round;stroke-linejoin:round;stroke-width:4.3"/><path d="m638.3 862.6s34.6-18.6 68.6-14.5" fill="#fff" stroke="#77554c" stroke-linecap="round" stroke-linejoin="round" stroke-width="4.3"/><path d="m642.2 880.3s34.6-18.6 68.7-14.5" fill="#fff" stroke="#77554c" stroke-linecap="round" stroke-linejoin="round" stroke-width="4.3"/><path d="m646.2 898s34.6-18.6 68.6-14.5" fill="#fff" stroke="#77554c" stroke-linecap="round" stroke-linejoin="round" stroke-width="4.3"/><path d="m640.4 579.7s101.3 214.9 122.5 396.8" fill="#fff" stroke="#77554c" stroke-linecap="round" stroke-linejoin="round" stroke-width="4.3"/><path d="m512.7 766.1s57.4-39.2 118.8-41.4" fill="#fff" stroke="#77554c" stroke-linecap="round" stroke-linejoin="round" stroke-width="4.3"/><path d="m518.4 785.1s57.4-39.2 118.8-41.4" fill="#fff" stroke="#77554c" stroke-linecap="round" stroke-linejoin="round" stroke-width="4.3"/><path d="m524.1 804.1s57.3-39.2 118.8-41.4" fill="#fff" stroke="#77554c" stroke-linecap="round" stroke-linejoin="round" stroke-width="4.3"/><path d="m529.8 823.1s57.3-39.2 118.7-41.4" fill="#fff" stroke="#77554c" stroke-linecap="round" stroke-linejoin="round" stroke-width="4.3"/><path d="m535.5 842.1s57.3-39.2 118.7-41.4" fill="#fff" stroke="#77554c" stroke-linecap="round" stroke-linejoin="round" stroke-width="4.3"/><path d="m541.2 861.1s57.3-39.2 118.7-41.4" fill="#fff" stroke="#77554c" stroke-linecap="round" stroke-linejoin="round" stroke-width="4.3"/><path d="m1234.6 287.2 193.4 286.5c7.1 10.5 4.3 24.8-6.2 31.8l-149.2 99.6c-8.4 5.5-19.7 3.3-25.6-4.8l-201-283.4c-6-8.6-3.9-20.6 5-26.5l156.8-108.3c8.8-6.1 20.9-3.8 26.8 5.1z" fill="#77554c" opacity=".3"/><path d="m1159.7 290.4s18.8 1.5 35.6 18.3l230.4 264.6c5.3 6.1 4.6 15.5-1.7 20.7l-169.2 144.1c-2.5 2.1-5.8 2.9-8.9 2.2l-22.3-4.6z" fill="#563d36"/><path d="m1220.5 734.6 1.8-56.8c91.2-49.8 188.3-90.7 188.3-90.7s18.8-4.9 13.4 6.9l-169.1 144.1c-2.5 2-5.9 2.8-9.1 2.1z" fill="#fff"/><path d="m1159.7 290.4 250.9 296.7-169 143.8c-8.5 7-20.9 6.2-28.3-2.1l-230.3-255.4c-7.7-8.6-6.9-21.9 1.9-29.3z" fill="#654840"/><path d="m1141.3 306.6 253.1 294.3-154 131.1c-7.9 6.5-19.2 5.6-26.1-1.9l-232.6-258c-7-7.9-6.2-20 1.8-26.9z" fill="#77554c"/><path d="m1111.4 550.3 99.8-87.9" fill="none" stroke="#fff" stroke-linecap="round" stroke-linejoin="round" stroke-width="6"/><path d="m1150.6 332.6c-5.7-6.5-15.5-7.2-22-1.5l-138.4 121.6c-2.2 1.9-3.4 4.4-3.3 7.2.1 1.5.5 3.5 2.3 5.4l232.6 258.1c3.1 3.5 8.5 3.9 12.1.8l134.5-114.4c6.6-5.5 7.4-15.4 1.7-21.9z" fill="none" stroke="#fff" stroke-miterlimit="10" stroke-width="2"/><path d="m1085.1 472.3-3.9 3.6-.3-.3-3.6-12.1q-.6-.3-1.1-.6-1.7-1-3.4-3-2.5-2.7-3.6-5.6-1-2.9-.8-5.6.2-2.9 1.3-5.1 1.1-2.4 3.1-4l.7-.1 10.1 6.7q2.7 1.9 4.7 2.2 1.7.4 3.1-.7v-.2l3.4-3.1q-.3-.2-.6-.5-1.1-.9-2.3-2.2l-17.8-19.8 3-3.6.2-.2 14 15.6-2-4.1 14.4-13q1.1-1 2.1-2.1 1.1-1.1 1.7-2.1l.3-.3q1.4.3 3.3 1.1 1.9.7 3.8 1.8 1.9 1.2 3.5 3 1.3 1.4 2.2 3.1 0 .1.1.1l3.4-3 3.2-2.9q-.4-.3-.8-.6-.9-.9-2.2-2.3l-9.9-11 2.9-3.6.3-.2 11.2 12.4q.6.8 1.5 1.8 1 1 1.9 1.9.9 1 1.6 1.5l.2.3q-.3 1.2-1.3 2.4-.9 1.2-2.6 2.7l-2.6 2.5v-.1l-10.1 9.3-.1-.1-12 10.8-.6.5-3.2 2.9-6.6 5.9v.1q-1.6 1.5-3.3 1.8-1.3.2-2.8-.1l1.5 2.3q-.5 1.9-1.4 3.5-.7 1.6-1.8 2.5-.9.8-2.1 1.3-1.2.5-2.5.8-.1 0-.2 0zm3.7-18.2-1.6-2.6-.7-.1q-.1.8-.3 1.6.8.5 1.6.8.5.1 1 .3zm-5.7-2.8-8.1-5.1q-.5.8-.8 1.7-.5 1.6-.5 3.1.1 1.5.6 2.9.7 1.4 1.5 2.4 1.4 1.4 2.8 1.9 1.4.4 2.6.2 1.4-.3 2.4-1.2 1.3-1.2 2.1-2.8.3-.7.5-1.4-1.5-.7-3.1-1.7zm-8.1-5.1q.5-.8 1.2-1.4l-2.2.7zm22.5-4.2.8-.6-.1-.1-1.5 1.3 1.8.5zm17.2-15.6q.9-.8 1.1-1.6.4-.9.1-1.8-.3-.9-1.2-1.9-1-1.3-2.7-2.2-1-.5-2-.9-.2.4-.4.6-.5.7-1.1 1.4-.5.7-1.4 1.3l-14.8 13.4 5.9 6.6 3.6-3.3v.1zm-4.7-8.4q.4-.6.9-1.3l-2 .9q.6.2 1.1.4zm-15.7 1q-.9.7-2 .5-1-.2-2.1-1.3-1.1-1.2-1.1-2.4 0-1 .7-1.7.7-.7 1.8-.5 1.1.2 2.2 1.3 1 1.2 1.1 2.3.1 1.1-.6 1.8zm.4 25.3q.6.4 1.1.6l.4-1.9zm32.5-29.2q.6.4 1 .6l.5-1.9zm-14.5-19q-.7.7-1.8.5-1.1-.2-2.2-1.4-1-1.1-1.1-2.2-.1-1.2.6-1.9.8-.6 1.9-.4 1.1.1 2.2 1.3 1 1.2 1.1 2.3.1 1.2-.7 1.8zm-27.4 121.7q.1 1.4-.4 2.8-.5 1.4-1.7 2.6-1.3 1.1-3.2 1.3-1.9.2-3.9-.9-2-.9-3.9-3-1.2-1.3-1.9-2.7-.8-1.3-1.3-3.1-.5-1.9-.2-4 .1-2.2.8-5 .5-1.9 1.3-4.2l3.7 4.1q-.4 1.2-.7 2.3-.7 1.8-.9 3.6-.2 1-.2 2.1.2.5.5 1 .7 1 1.5 1.9 1.5 1.8 3.1 2 1.5.3 2.5-.7 1.1-.9 1.4-2.5.1-.7.2-1.5l1.8 2-.4-1.5 1.8 2q.1.6.1 1.4zm-14.4-16.2-1.8-1.9 3-3.6.3-.3 14.4 16.1 3.6-3.2v.1l2.7-2.5q-.3-.2-.7-.4-.9-1-2.2-2.4l-10-11 3-3.7.2-.1 13.1 14.5 3.6-3.2q1.4-1.3 1.1-3.3-.4-2.2-2.4-5.3-1.9-3.1-5.4-7.5l-.1-.7q.6-1.2 1.5-2.4.7-1.2 1.7-2.1 2.3-2 5.1-2.4 3-.3 5.8 1 3 1.2 5.6 4.1 2.3 2.7 3.3 5.5 1.1 2.9.6 5.5-.3 2.5-2.3 4.3-1.3 1.2-3 1.8-1.6.6-3.7.6-.6-.1-1.2-.1-.1.7-.2 1.4-.6 2.4-2.9 4.5l-10.3 9.2-5.6 5-2.5-2.7q-.1-.5-.2-1l-3-3.5q0 1 0 2l-7.4-8.2q.2-.7.5-1.5l-3.2-5.1q-.5 1.3-1 2.5zm1.3 10.8.5 3.1q0-.9.1-1.8-.4-.7-.6-1.3zm13.2.8 3.3.8-1.9-2.1zm-19.2-16.7q-.8.7-1.8.5-1.2-.3-2.3-1.3-1-1.3-1.1-2.3 0-1.2.7-1.9.7-.6 1.9-.4 1.1.1 2.1 1.4 1 1.1 1.2 2.2.1 1.2-.7 1.8zm-3.5 4.5q-.8.7-1.9.4-1.1-.2-2.2-1.3-1-1.2-1.1-2.3-.1-1.1.7-1.8.8-.7 1.9-.5 1.1.2 2.1 1.3 1 1.2 1.2 2.4.1 1.1-.7 1.8zm30.5 5.3q.6.5.9.7l.5-2zm3.4-3.1-1.5 1.3 3.5.8zm6.2 12.2q-1.1-1.2-1.1-2.2-.1-1.2.6-1.8.7-.7 1.8-.5 1.2.1 2.3 1.3.9 1.2 1 2.3.1 1.1-.6 1.8-.7.7-1.9.4-1.1-.1-2.1-1.3zm-3.5 4.5q-1-1.2-1.1-2.3-.2-1.1.6-1.8.7-.7 1.8-.5 1.2.2 2.2 1.3 1.1 1.2 1.1 2.3.1 1.1-.6 1.8-.7.8-1.8.5-1.2-.2-2.2-1.3zm7.4-21q0-1.7-.7-3.6-.3-1.1-.8-2.2-1-.1-2.1-.3v5.4q1.9.5 3.6.7zm.1-5.8q1.7-.1 3.1-.6 1.5-.6 2.6-1.6.2-.2.4-.3-.2-1-.6-1.9-1-2.1-2.5-3.8-1.6-1.7-3.5-2.4-1.9-.6-3.9 0-1.6.4-3 1.7 2 2.7 3.7 5.2 1.3 1.9 2.1 3.7.8 0 1.6 0zm30.7-1.6q-1.5 1.4-3.1 2.1-1.6.5-2.6.7-1.1.2-1.1.2l-2.5-5 .3-.2q1.7-.2 3.2-.9 1.4-.7 2.3-1.5 1.3-1.1 1.9-2.1.3-.6.5-1.4-.3-1-.8-2-.9-1.8-2.4-3.8 0-.1 0-.1-.4.7-.9 1.5-.8.8-1.5 1.4-2 1.8-4.5 2.4-2.4.5-5.1-.4-2.6-1-5-3.7-1.9-2.2-2.9-4.3-1.1-2.3-1.4-4.5-.3-2.2.2-4 .5-1.9 1.8-3 1.3-1.2 3.4-1.4 2.2-.2 4.6.6 2.6.8 5.3 2.5 2.7 1.9 5.3 4.6 4.2 4.7 6.2 8.9 2.1 4.2 1.8 7.7-.4 3.3-3 5.7zm-38.1-7.3q-.5-.6-1-1.2l.5 1.7q.2-.3.5-.5zm13.5 6.4q.3 1.1.4 2.3l.4-3.2q-.2.3-.4.6-.2.1-.4.3zm23.5-7.2q.3.7.4 1.4l-.1-2.4q-.1.6-.3 1zm-3.2-5.9q.1-.3.2-.5l-3.8-4.4q-.1.2-.2.4 0 .1 0 .1 2.2 2.4 3.8 4.4zm-6.9-7.4q-1.6-1.3-3.5-2.2-1.8-.8-3.7-1.2-1.2-.2-2.5 0-.4 1.8.1 3.7.7 2.7 2.5 4.7 1.2 1.2 2.5 1.8 1.3.6 2.8.3 1.4-.2 2.8-1.5.6-.6 1.2-1.3.5-.7.9-1.4-1.4-1.6-3.1-2.9zm-9.7-3.4q.2-.8.6-1.6l-1.7 1.9q.6-.2 1.1-.3zm28.8 16.3-2.8-4.8q.8-.3 1.6-.8.9-.4 1.6-1 1-1 1.6-2.1.4-.7.6-1.4-.4-.9-1-1.9-1-1.8-2.6-4-1.6-2.1-4-4.8-2.7-3.1-5.4-5.7-2.6-2.5-5.1-4.7l3-3.7.3-.3q2.4 2.2 5 4.9 2.7 2.6 5.4 5.8.7.7 1.2 1.3l-.7.7 3.9 4.4.5-.4q.5.7.9 1.4 2 3.4 2.6 6.2.6 2.7-.1 5-.9 2.2-2.8 4-.6.6-1.5 1.1-.8.5-1.3.9-.5.3-.5.3zm2.6-10.2q.3.6.5 1.2l-.2-2q-.1.4-.3.8zm4-11.5-3.5 3.1q-1.5-2.2-3.7-4.6l3.7-3.3v-.1l11.2-10q-1.8 0-4.3-.3-3.4-.5-7.5-1.6-4.1-1.1-8.9-2.6l-1.1-5.8.1-.1q7.2 2.1 12.3 3.4 5.1 1.2 8.3 1.6 3.3.5 5.1.3 1.8-.2 2.5-.8l2.2-2 .3.3 2.6 5-19.3 17.4zm7.7-14.9q.6-.1 1.1-.1l.4-1.3zm3.8 15.5q-1.1-1.1-1.1-2.3 0-1.1.7-1.8.7-.7 1.8-.5 1.1.2 2.2 1.4 1 1.1 1.1 2.3.1 1.1-.7 1.8-.7.6-1.9.5-1.1-.2-2.1-1.4zm21.9-30.7-9 8q-1.2 1.2-2.9.7-1.7-.5-3.5-2.5 0-.7-.1-1.4-.1-.9-.5-2.3-.4-1.4-1.2-3.9l-2-5.6-11.9-5.8-.2-.3 3.6-3.2 6.3 3.2-4.7-13.6 3.5-3.1.3.3 10 27.3q.6 1.6.8 2.6.2 1 .2 1.7l4.7-4.2-4.6-2.3-1.4-4.1.1-.2 13.4 6.2.3.3q.1.6-.3 1.2-.4.5-.9 1zm-19.2-7 2.3 1.1-3.2-3.6zm-2.1-6.1.8 2.5 1-1.6zm10.1 15.2-1.6 1.5 1.5-.4q.1-.5.1-1.1zm4.7-4.2 3.9 1.9-2.5-3.1zm-23.5-16.2q-.7.6-1.6.7-.8.1-1.6.1-.2.2-.4.5-.6.8-.6 2.2l-.3.2-2.7-.9q-.2-1.3 0-2.4.2-1.2 1.2-2 .7-.7 1.9-.8.7 0 1.3.1.3-.5.6-1 .4-.7.4-1.9l.1-.1 2.9.9q.2 1.2 0 2.4-.2 1.1-1.2 2zm-3.2.8q.3-.6.8-1.1l-2.1.8q.3.1 1.2.3 0 0 .1 0zm.4-3.1q-.1 0-.1.1-.4.4-.8.8l3.1-.4q-.5-.2-1.5-.4-.3-.1-.7-.1zm37.5 16.4-24.5-27.2 3.4-4 .3.3q.4.8 1.3 1.8.8 1 1.8 2 .9 1.1 1.6 1.8l19.7 22z" fill="#fff" fill-rule="evenodd"/><path d="m412 575.1-2.3 13.6c-1.6 9.6-9.3 16.9-18.8 18l-232.9 26.5s-10.3-4.6-11.4-20.1l-22.9-363.6s1.6-17.7 12-21.4z" fill="#77554c" opacity=".3"/><path d="m422.8 556.8-2.3 13.6c-1.6 9.6-9.2 16.9-18.8 18l-232.9 26.4s-10.3-4.5-11.4-20l-22.9-363.6s1.7-17.8 12.1-21.5z" fill="#dbd8d8"/><path d="m146.6 209.7 43.9 55.1-15.9 329.2s-11.8 4.4-5.8 20.8c0 0-10.3-4.5-11.4-20l-22.9-363.6s1.7-17.8 12.1-21.5z" fill="#8f735c"/><path d="m174.6 594-28-384.3 219.5-16.7c10.8-.7 20.4 7.3 21.5 18.2l35.6 339.2c1.1 11.4-7.3 21.5-18.7 22.4z" fill="#a8876c"/><path d="m198.7 591.8-31.1-383.7 200.1-15.2c10-.6 18.7 6.7 19.7 16.6l35.9 342.7c1.1 10.4-6.6 19.7-17.1 20.4z" fill="#c39b7b"/><path d="m221.7 408.3 133.4-14.7" fill="none" stroke="#fff" stroke-miterlimit="10" stroke-width="2.2"/><path d="m219.6 399.7 133.5-14.7" fill="none" stroke="#fff" stroke-miterlimit="10" stroke-width="2.2"/><path d="m217.6 391.3 133.4-14.9" fill="none" stroke="#fff" stroke-miterlimit="10" stroke-width="2.2"/><path d="m411.4 557.5c.8-1.3 1-2.7.9-4.1l-35.9-342.7c-.4-4-4-6.9-8-6.7l-170.7 13c-10 .8-17.4 9.5-16.6 19.6l26.3 324.8c.9 10.1 9.7 17.5 19.8 16.6l178-16.4c2.8-.2 5.1-1.8 6.2-4.1z" fill="none" stroke="#fff" stroke-miterlimit="10" stroke-width="2.2"/><path d="m226.6 528.5-6.5-68.3c-.8-7.8 5-14.8 12.9-15.7l119.1-12.5c8-.9 15.1 5.1 15.8 13.2l5.3 69.3c.6 7.9-5.2 14.8-13 15.5l-117.8 11.4c-7.9.8-15-5-15.8-12.9z" fill="none" stroke="#fff" stroke-miterlimit="10" stroke-width="2.2"/><path d="m401.9 469.3-76.9-348.9 192.9-55.6c9.6-2.6 19.6 2.8 22.7 12.3l104.7 328.3c3.2 9.9-2.5 20.6-12.6 23.5l-205.8 55.6c-11.1 3-22.5-3.9-25-15.2z" fill="#f4d160"/><path d="m643.1 375.7.6 13.9c.4 9.6-5.7 18.3-14.8 21.3l-222.6 73.2s-11.1-2.4-15.3-17.3l-96.2-351.4s-2-17.7 7.4-23.5z" fill="#fff"/><path d="m302.2 91.9 54.1 45.1 51.3 325.5s-10.6 6.7-1.3 21.6c0 0-11.1-2.4-15.3-17.3l-96.2-351.4s-2-17.7 7.4-23.5z" fill="#563d36"/><path d="m407.6 462.5-105.4-370.6 211.5-60.9c10.5-2.9 21.4 3 24.8 13.4l103.6 325c3.5 10.9-2.7 22.5-13.7 25.7z" fill="#654840"/><path d="m430.8 455.4-108.4-369.3 192.9-55.5c9.6-2.7 19.6 2.7 22.6 12.3l104.8 328.2c3.1 10-2.5 20.6-12.6 23.5z" fill="#77554c"/><path d="m515.1 236.2-69.9 21.7" fill="none" stroke="#fff" stroke-miterlimit="10" stroke-width="2.2"/><path d="m626.9 384c2.1-.6 3.7-1.9 4.6-3.7 1-1.8 1.2-3.9.6-5.8l-104.8-328.3c-1.2-3.8-5.2-6-9.1-4.9l-172.6 49.7c-5.2 1.5-8.1 6.9-6.6 12l96.6 329.1c1.5 5.2 7 8.1 12.1 6.5z" fill="none" stroke="#fff" stroke-miterlimit="10" stroke-width="2.2"/><path d="m445.5 388.6-20.7-67.1c-2.2-7.1 1.7-14.7 8.8-16.9l115.6-37c7.3-2.3 15.1 1.9 17.2 9.2l19.8 68.4c2 7.1-2 14.6-9.1 16.8l-114.5 35.5c-7.2 2.3-14.8-1.7-17.1-8.9z" fill="none" stroke="#fff" stroke-miterlimit="10" stroke-width="2.2"/><path d="m575.8 357.7c4.7-1.5 7.5-6.5 6.1-11.3l-19.7-68.3c-1.4-4.9-6.5-7.7-11.4-6.3l-115.8 37c-4.8 1.5-7.4 6.6-6 11.4l20.8 67.1c1.4 4.7 6.5 7.4 11.2 6.1z" fill="none" stroke="#fff" stroke-miterlimit="10" stroke-width=".6"/><path d="m566.2 318 .3 4-.3.1q-.4 0-1.2 0-.6-.1-1.3 0-.7 0-1.2-.1-1.8.2-3.9.7-2.3.5-4.2 1.1-2 .6-3.4 1.1l-14 4.8 1.3-1.3q.5.2.9 1 .4 1 .8 2.2l3.4 9.8-4 1.9-.4.1-3.7-11q-.2-.7-.5-1.6-.4-.8-.7-1.7-.4-.9-.6-1.4l-.1-.3q.8-.8 2.3-1.4 1.5-.8 3.5-1.4l10.5-3.6q2.8-.9 5.8-1.8 2.9-.8 6.7-1.2.7-.1 1.4-.1.7 0 1.5-.1.6.1 1.1.2zm-17.1-2.8q.3 1.1-.1 1.9-.4.8-1.4 1.1-.9.3-1.7-.1-.9-.4-1.2-1.3-.3-1.1.1-1.9.4-.8 1.4-1.1.9-.3 1.7.1.8.3 1.2 1.3zm-29.6 16 4.9-1.6 1.2 3.9-5.4 1.9-1.2-3.2zm8.3-2.9 8.2 24-4.6 2.1-.1-.3q0-.6-.3-1.5-.3-.9-.6-1.8-.3-.9-.5-1.5l-6.5-19.5zm-7.2 6.1-.5.9-5.8 2 1.3-1.3q.4.3.9 1.1.3.8.7 2l3.4 9.9-4.1 1.9-.3.1-5-14.8 2.6 1.3-6.3 2.1-1.1-3.3.4-.8 12.7-4.3zm-3.8 19.9q1-.3 1.8.1.9.3 1.2 1.3.4 1.2-.1 1.9-.4.8-1.4 1.2-.9.3-1.7-.1-.8-.4-1.2-1.4-.4-1 .1-1.9.4-.8 1.3-1.1zm5-2.3q1-.4 1.8 0 .8.4 1.1 1.4.4 1.1-.1 1.8-.4.8-1.4 1.1-.9.3-1.6 0-.9-.4-1.3-1.4-.3-1 .2-1.9.4-.8 1.3-1zm-55.3-2.9 11.4-3.8-2 5-8.7 2.9-1-3.2zm11.1-3.8 29-10 1.2 3.3-.5.9-28.3 9.6q-2 .7-2.7 1.6-.8.9-.3 2.3.4 1.1 1.3 2 .9 1 2.1 1.6l-2.1.3q1.1-.7 1.9-1.1.8-.5 1.5-.8.8-.3 1.8-.6l21.1-7.2q1.2-.4 2.3-.1 1.2.4 1.9 2.1l-8.6 16-.3.1-2.8-2.2 7-12.7 1.2.9-21 7.2q-1.4.5-2.8 1-1.4.5-2.2 1.1l-.5.1q-1-.4-2.3-1.3-1.2-.8-2.2-2-1-1.1-1.5-2.6-.4-1.3-.3-2.7.1-1.3 1.1-2.7l1-2.1q.7-.6 1.7-1.1 1-.5 2.3-.9zm-14.5 4.9 3.3-1.2 1.1 3.3-.4.9-5.8 1.9 1.2-1.3q.4.4.9 1.2.5.8.9 2l5.9 17.5-4 1.9-.3.1-6.4-18.6q-.2-.7-.5-1.6-.4-.9-.7-1.8-.3-.8-.7-1.3l-.1-.3q.9-.7 2.2-1.4 1.4-.6 3.4-1.3zm-11.1 3.8 8.1 24-4.5 2.1-.2-.3q0-.7-.3-1.5-.2-.9-.5-1.8-.3-.9-.5-1.5l-6.6-19.4z" fill="#fff"/><path d="m525.6 297.3q.5-.8 1.1-1.4.8-.6 1.8-.9 1.2-.4 2.4-.2 1 .2 1.9.9.8.8 1.2 2.1.3.7.4 1.6 0 .7-.3 1.7-.3.9-1.1 1.9-.8 1.1-2.1 2.4-.9.8-2 1.8l.3 1.1-2.7 1.3-.2.1-3.3-9.7 1.2-.5-1.8-.8.5 1.2-2.9 1h-.1l.4-.2.3-.6-.7-2.2 4.9-1.6.5 1.5q.1-.2.3-.5zm-2.6 2.7h-.1v-.1h.1zm-3.1.9-2.3.7q.1.2.2.4.3.6.5 1.4l2.4 6.8-2.8 1.2-.2.2-2.6-7.7q-.1-.4-.4-1-.2-.6-.4-1.2-.2-.6-.5-1v-.1q.6-.6 1.5-1 .9-.4 2.3-.9l1.9-.6-.3.5zm-.4-2.8v-.1l.4-.1zm9.6 5.7q.9-.8 1.6-1.6.5-.5.8-1 0-.3 0-.5 0-.6-.2-1.2-.4-1-1.2-1.5-.8-.2-1.7.1-.9.2-1.6.9-.3.4-.5.8l1.6 5q.7-.5 1.2-1zm2.3-1.9.7-1.6q-.3.5-.6.9 0 .3-.1.7zm-13.9-.2q-.2-.3-.4-.4l-.8.8zm-2.1-5.9q.2.7-.1 1.2-.3.6-.9.8-.7.2-1.2 0-.6-.3-.9-1-.2-.7.1-1.3.3-.5.9-.7.7-.2 1.3 0 .5.2.8 1zm3.4-1.6q.3.6-.1 1.2-.3.6-.9.8-.7.2-1.3-.1-.5-.2-.8-.9-.2-.7.1-1.3.3-.6.9-.8.7-.2 1.3.1.6.3.8 1zm-6.7 11.9q.4 1.3.3 2.5 0 1.3-.6 2.4-.4 1.1-1.3 1.9-.9.9-1.9 1.1-1.2.5-2.5.2-1.3-.2-2.5-.9-1.2-.8-2.3-2-1-1.3-1.4-2.9-.2-.3-.3-.7l-2 .8-.1-.1.4-.1.3-.6-.7-2.2-.5.2.1-.1 1.8-.7q.2 1.4.6 2.7l2.1-.7.4-.1.6-.2q-.5-1.4-.7-2.5 0-.1 0-.2l-2.9.9q-.1-.9 0-1.7.2-2.3 1.4-3.9 1.1-1.6 3.5-2.3 1.3-.5 2.4-.5 1.1-.1 1.7-.1.7.2.7.2l-.1 2.7h-.2q-1.1-.1-2.1 0-1.1.2-1.9.4-1 .4-1.7.8-.4.2-.7.5-.2.5-.2 1.1 0 .9.2 2l2.2-.8q1.8-.7 3.4-.5 1.6.1 2.8 1 1.1.9 1.7 2.4zm-13.2-1.2q0 0 0-.1h.1q0 0 0 .1zm-2.1 1.3.7 2.2-2.3.8q.1.2.2.4.3.6.5 1.4l2.4 6.7-2.8 1.5h-.3l-2.9-9-3.1 1 .3-.6-.8-2.1h.1l8.2-2.8zm-7.7 5-2.7.8q-.2-.2-.4-.4l-.9.9 1.2-.4q.1.2.2.3.3.6.6 1.5l2.3 6.7-3 1.5-3-9-3.1 1 .4-.6-.8-2.2 8.7-3 .1.1-.3.6zm-2.7.8q0 .1 0 .1h-.1q0 0 0 0zm-6.1 2-2.5.9q-.2-.3-.5-.5l-.8 1 1.2-.5q.1.1.2.2.1.5.3 1.1l2 5.8-2.8 1.3-.2.1-2.5-7.4-3.3 1.1q-.2-.4-.5-.6l-.8 1 1.2-.4q.1.1.1.2.2.5.4 1.1l2.2 6.5-2.7 1.3-.3.1-2.7-8.2-3.5 1.2q.1.2.2.4.3.6.6 1.4l2.3 6.7-2.8 1.3-.2.1-3.1-8.9-2.6.8.3-.6-.7-2.2 21-7-.3.5zm-8.9 3.1q0 0 0 0h-.1q0 0 0 0zm6.4-2.2q0 0 0 0l-.1.1q0-.1 0-.1zm-21.3 7.2q0 0 .1 0 0-.1 0-.1zm.2.3q.3.6.6 1.4l4.1 12.2-2.8 1.2-.2.1-4.4-12.9q-.1-.4-.3-1-.3-.7-.5-1.3-.2-.6-.5-.9v-.2q.6-.6 1.5-1 .9-.4 2.3-.9l2.3-.8v.1l-.5.1-.1.6.7 2.2-2.3.8q-.2-.3-.4-.5l-.9.9 1.2-.4q.1.1.2.3zm45.2-21.6q.1-.4.2-.7l-.7 1.1q.2-.2.5-.4zm.7 6q.4 1 .9 1.9.6.9 1.3 1.6.8.7 1.8 1.1.6.2 1.4.3.8-.8 1.2-1.7.4-1.5-.1-2.6-.2-.8-.8-1.3-.6-.5-1.5-.6-1-.1-2.1.4l-2.1.7q0 .1 0 .2zm5.4 4.9q-.4.4-.8.7l1.5-.6q-.4 0-.7-.1zm-12.9-2.6q-.2-.3-.4-.5l-.9.9zm-2.9 1 1.3-.4-1.7-.9zm1-7.5q.2.7-.1 1.3-.3.6-.9.8-.7.3-1.3-.1-.5-.2-.8-.9-.3-.7.1-1.2.3-.6.9-.8.7-.3 1.3 0 .5.3.8.9zm-9.7 10.5 1.3-.5-1.7-.8zm.2-6.8q.3.7 0 1.3-.4.5-1 .7-.7.3-1.2.1-.6-.3-.9-1-.2-.7.2-1.2.3-.6.9-.8.7-.3 1.2 0 .6.3.8.9zm3.4-1.6q.3.7 0 1.3-.4.5-1 .7-.7.3-1.2 0-.6-.3-.9-.9-.1-.8.1-1.3.4-.5 1.1-.8.6-.2 1.1 0 .6.3.8 1zm-12.4 11.3 1.3-.5-1.7-.8zm-6.4 2.2 1.2-.4-1.6-.9zm-3.5 1.2q-.2-.3-.4-.4l-.9.8zm-2.9 1 1.3-.4-1.8-.9z" fill="#fff" fill-rule="evenodd"/><path d="m425.7 1158.4c37.6 4.6 184.8 24.3 224.3 57.1 6.6 5.5 7.9 15.1 3.1 22.1l-161.4 234.7c-4.4 6.4-12.6 8.9-19.8 6-31.5-12.7-113.9-50.9-143.4-113.7-2.4-5.1-7.2-8.5-12.7-9.2-31.3-4.1-133.1-18-172.9-29.7-9.3-2.7-14.2-12.7-10.8-21.7l98.6-259.4c2.6-6.7 9.1-11 16.3-10.6 31.1 1.6 114.2 15.5 166 115.6 2.6 4.8 7.3 8.1 12.7 8.8z" fill="#77554c"/><path d="m424.2 1123.7c37.6 4.6 184.8 24.3 224.3 57.1 6.6 5.5 7.9 15.1 3.1 22.1l-161.4 234.7c-4.4 6.4-12.6 8.9-19.8 6-31.5-12.7-114-50.9-143.4-113.7-2.4-5.1-7.2-8.5-12.7-9.2-31.3-4.1-133.1-18-172.9-29.7-9.3-2.7-14.2-12.7-10.8-21.7l98.6-259.4c2.6-6.7 9.1-11 16.3-10.6 31.1 1.6 114.1 15.5 166 115.5 2.6 4.9 7.3 8.2 12.7 8.9z" fill="#e6e6e7"/><path d="m293.6 952.3c32.4 16 104.7 56.3 140.2 113.2 2.9 4.8 7.9 8 13.5 8.6 28.8 3.1 121.2 15.7 189.3 55.6 8.7 5.1 11.6 16.2 6.6 24.8l-173.5 297.5c-4.8 8.4-15.3 11.4-23.9 7-32-16.3-104.3-58.7-128-117.4-2.3-5.5-7.1-9.5-12.9-10.8-32.2-7.1-135.7-31.2-173.5-56.6-7.5-5.1-10-14.9-6-23l144-290.6c4.4-9 15.2-12.7 24.2-8.3z" fill="#fff"/><path d="m438.3 1071.2s-49.6 124-127.1 256.5" fill="#fff" stroke="#77554c" stroke-miterlimit="10" stroke-width="2.4"/><path d="m546 1217.2-101.5-33.2c-4.6-1.5-7.3-6.5-5.8-11.2l24.5-54c1.5-4.7 6.5-7.3 11.2-5.9l106.6 32.2c4.7 1.5 7.3 6.5 5.8 11.2l-29.7 55c-1.5 4.7-6.5 7.3-11.1 5.9z" fill="#77554c"/><path d="m293.8 992.8s83.8 37 100 102.8" fill="none" stroke="#77554c" stroke-linecap="round" stroke-linejoin="round" stroke-width="2.4"/><path d="m277.8 1026.6s85.5 31.1 104.2 95.8" fill="none" stroke="#77554c" stroke-linecap="round" stroke-linejoin="round" stroke-width="2.4"/><path d="m261.7 1060.5s87.4 25.1 108.5 88.6" fill="none" stroke="#77554c" stroke-linecap="round" stroke-linejoin="round" stroke-width="2.4"/><path d="m245.7 1094.3s89.2 19.3 112.7 81.5" fill="none" stroke="#77554c" stroke-linecap="round" stroke-linejoin="round" stroke-width="2.4"/><path d="m229.7 1128.1s90.9 13.4 116.9 74.5" fill="none" stroke="#77554c" stroke-linecap="round" stroke-linejoin="round" stroke-width="2.4"/><path d="m213.6 1162s92.8 7.4 121.2 67.3" fill="none" stroke="#77554c" stroke-linecap="round" stroke-linejoin="round" stroke-width="2.4"/><path d="m197.6 1195.8s94.6 1.6 125.4 60.2" fill="none" stroke="#77554c" stroke-linecap="round" stroke-linejoin="round" stroke-width="2.4"/><path d="m181.5 1229.7s96.5-4.4 129.7 53" fill="none" stroke="#77554c" stroke-linecap="round" stroke-linejoin="round" stroke-width="2.4"/><path d="m417.6 1208.2s100.6 22.8 125.8 48.5" fill="none" stroke="#77554c" stroke-linecap="round" stroke-linejoin="round" stroke-width="2.4"/><path d="m400.6 1232.9s99.2 20.9 123.3 53" fill="none" stroke="#77554c" stroke-linecap="round" stroke-linejoin="round" stroke-width="2.4"/><path d="m383.6 1257.7s97.9 18.8 120.8 57.3" fill="none" stroke="#77554c" stroke-linecap="round" stroke-linejoin="round" stroke-width="2.4"/><path d="m366.6 1282.4s96.5 16.9 118.2 61.7" fill="none" stroke="#77554c" stroke-linecap="round" stroke-linejoin="round" stroke-width="2.4"/><path d="m349.5 1307.1s95.3 14.9 115.8 66.2" fill="none" stroke="#77554c" stroke-linecap="round" stroke-linejoin="round" stroke-width="2.4"/><path d="m912.2 1076.7-2.6-1.7c0-2-1.2-6.9-10.9-15.7-2.2-2-9.3-7-19.6-14-1-1.7-2.5-3.3-4.4-4.6l-56.7-37.9c-2.6-1.8-5.4-2.7-7.9-2.8-10-6.4-20.2-13-30.3-19.5.1-1.4-.5-2.8-1.8-3.6-1.2-.8-2.7-.8-3.9-.1-27.2-17.5-52.8-33.8-69.1-44.2-.3-1-.2-1.6.3-1.7 1.9-.1 62.7 39.9 62.7 39.9 1.9-3.2-60.2-46-63.9-48.3-3.3-2.1-7 .8-9.5 3.5q-1.9-1.2-3.3-2.1c0-1.3-.7-2.5-1.8-3.3-1.3-.8-2.9-.7-4.2.1-2.5-1.4-5-1.1-7.6 1.4l-6.3-4c-2-1.3-4.7-.7-6 1.5l-1.5 2.5c-1.3 2.2-.7 5 1.4 6.2l6.2 4c-1.4 4-.1 5.8 2.3 7.4-.4 1.7.2 3.5 1.7 4.4 1.3.9 2.9.8 4.1 0 12.2 7.7 45.8 29 82.6 52.1-.2 1.6.4 3.3 1.8 4.2 1.4.8 3.1.7 4.4-.3 10.2 6.4 20.6 12.9 30.7 19.2 1.2 2.4 3.2 4.7 5.9 6.2q0 .1.1.1s.2.1.7.4l57.7 33.5c1.1.6 2.2 1 3.2 1.4 12 7.1 20.4 11.9 23.3 13.1 12 4.9 16.7 3.9 18.4 2.9l2.6 1.7c.5.3 1.2.1 1.5-.4s.2-1.2-.3-1.5z" fill="#f4d160"/><path d="m699.2 918.7s7.3-10.1 12.7-6.3c3.5 2.5 63.4 48.4 61.3 51.5 0 0-58.6-43.1-60.6-43.1-2 .1 2.7 9.3 2.7 9.3z" fill="#bc3c15"/><path d="m912 1078.7c.3-.6.2-1.3-.3-1.6l-5.3-3.8c-.5-.3-1.2-.2-1.5.3-.4.5-.3 1.2.2 1.6l5.4 3.8c.4.3 1.1.2 1.5-.3z"/><path d="m690 919.3-1.6 2.4c-1.4 2.1-4.1 2.6-6.1 1.2l-9.5-6.7c-2-1.4-2.4-4.2-1.1-6.3l1.7-2.5c1.4-2 4.1-2.6 6.1-1.2l9.5 6.8c1.9 1.4 2.4 4.2 1 6.3z" fill="#6d6e70"/><path d="m681.1 928.3c-3.5-2.5-4.8-5.1.7-13.2 4.3-6.5 8.1-7.9 11.6-5.3.3.2.7 0 1.1.1 0 0 191.8 136.2 204.6 149.2 12.9 12.9 9.8 17.4 9.8 17.4s-2.9 4.5-19.2-3.2c-16.4-7.8-208.2-144-208.2-144-.2-.4-.2-.8-.4-1z" fill="#d35b30"/><path d="m894.5 1068.4c-16.3-7.7-208.1-144-208.1-144-.2-.3-.2-.8-.5-1-3.4-2.4-4.7-5.1.7-13.1q.3-.5.6-.9c-1.7 1-3.5 2.8-5.4 5.7-5.5 8.1-4.2 10.7-.7 13.2.2.2.2.6.4 1 0 0 191.8 136.2 208.2 144 16.3 7.7 19.2 3.2 19.2 3.2s.7-1.1 0-3.6c-2.9-.1-7.4-1.2-14.4-4.5z" fill="#c1451f"/><path d="m740.6 949.7 10.6 7.8" fill="none" stroke="#fff" stroke-linecap="round" stroke-linejoin="round" stroke-width="2"/><path d="m705.9 924.1 27.8 20.5" fill="none" stroke="#fff" stroke-linecap="round" stroke-linejoin="round" stroke-width="2"/><path d="m773.1 992.1 10.7-16c1.3-1.8.8-4.4-.9-5.6-1.8-1.3-4.2-.8-5.5 1.1l-10.7 16c-1.2 1.8-.8 4.4 1 5.6 1.7 1.3 4.2.8 5.4-1.1z" fill="#bc3c15"/><path d="m687.6 931.4 10.7-16c1.3-1.9.9-4.4-.9-5.6-1.8-1.3-4.2-.8-5.5 1l-10.7 16.1c-1.2 1.8-.8 4.3 1 5.6 1.7 1.2 4.2.8 5.4-1.1z" fill="#bc3c15"/><path d="m879.3 1055.9 1-1.4c3-4.5 1.2-11.2-4.2-15.3l-54.7-40.7c-5.6-4.4-12.1-4.5-15.3.3l-3.8 5.7c-3.2 4.8-.9 12.1 5.1 16l56.6 36.9c5.6 3.7 12.3 3 15.3-1.5z" fill="#434244"/><path d="m806.6 1016.5 10.7-16.9c1-1.5 2.9-1.8 4.3-.8 9.7 7.1 43.3 32.1 52.3 38.7 1.3 1 1.6 2.7.7 4l-8.6 13.6c-.9 1.4-2.8 1.8-4.2.9-11-7.2-54.4-35.5-54.4-35.5q-.1 0-.1 0c-1.3-.9-1.6-2.7-.7-4z" fill="#6d6e70"/><path d="m1311.7 1110.5-72.9 300.6c-4 16.2-20.5 26-36.6 21.6l-186.1-50.5c-9.2-2.5-14.8-11.8-12.7-21.1l73.6-321.1c2.2-9.7 12-15.7 21.7-13.3l192.3 49.4c15.1 3.9 24.3 19.2 20.7 34.4z" fill="#77554c" opacity=".3"/><path d="m1280.4 1038.9s9.2 15.5 5.2 37.6l-79.9 322.9c-1.8 7.5-9.5 12-16.9 10l-244.6-66.3c-3-.8-5.4-2.9-6.6-5.7l-8.6-19.9z" fill="#8f735c"/><path d="m928.2 1314.6 45-29.6c88.4 43.6 213.7 110.2 213.7 110.2s14 12 1.9 14.2l-244.5-66.3c-3-.8-5.5-3-6.7-5.8z" fill="#8f735c"/><path d="m1280.4 1038.9-93.5 356.3-244.3-66.3c-10.1-2.7-16.2-12.9-13.9-23.1l72.8-317.8c2.4-10.7 13.2-17.3 23.8-14.5z" fill="#a8876c"/><path d="m1243.2 1029.4-86.7 357.6-215.5-58.5c-9.2-2.5-14.8-11.8-12.7-21.1l73.6-321.1c2.2-9.8 12.1-15.8 21.7-13.3z" fill="#c39b7b"/><path d="m1190.4 1130.1-119.7-27.1" fill="none" stroke="#fff" stroke-miterlimit="10" stroke-width="1.9"/><path d="m1187.7 1142.4-88.8-20.7" fill="none" stroke="#fff" stroke-miterlimit="10" stroke-width="1.9"/><path d="m1142 1204.4-130.8-33.1" fill="#fff" stroke="#000" stroke-miterlimit="10" stroke-width="1.9"/><path d="m1155.8 1229.5-167.5-42.4" fill="#fff" stroke="#000" stroke-miterlimit="10" stroke-width="1.9"/><path d="m1136.1 1246-139.8-35.4" fill="#fff" stroke="#000" stroke-miterlimit="10" stroke-width="1.9"/><path d="m1019.6 1048.3q.5-2.5 2-4.5 1.5-1.9 3.4-3.2 2-1.4 4.2-1.9 2.3-.4 4.4.1 2.3.6 4.3 2.2 1.9 1.7 3.2 4.3 1.2 2.4 1.6 5.5.4 3.2-.4 6.5-.1.6-.3 1.2l4.2 1 18.5 4.3q-1.5-1.5-3.1-3.8-2.3-2.9-4.4-6.9-2.3-4-4.5-8.7l4.8-3.7.4.1q3.6 7 6.4 11.9 2.9 4.8 5.1 7.7 2.1 2.9 3.7 4.3 1.7 1.4 2.7 1.6h.2l.5.1.4.1 4.6 1.2q0-.4 0-.8.2-1.3.5-2.9l3.2-13.7 6 .7.4.1-4.2 18 6.1 1.4.1-.1 5.5 1.2q0-.3 0-.7.1-1.3.5-3l5.6-24.3 6.1.7.4.2-6 25.9q-.3.9-.5 2.2-.3 1.2-.5 2.4-.2 1.3-.3 2.1v.3q-1.5.3-3.5.1-2-.2-4.9-.9l-4.5-1-.1.1-17.6-4.1-30.6-7.1-3.1-.7q-.8 1.7-1.8 3.1-2.6 3.6-6.3 5.1-3.7 1.3-8.1.3-2.8-.7-4.8-1.7-1.8-1-2.9-1.7-1.1-.9-1.1-.9l3.1-4.4.4.1q1.6 1.3 3.5 2.2 2.1.9 3.5 1.3 2.1.4 3.7.5.9-.1 1.8-.2.8-.8 1.4-1.7 1-1.5 1.8-3.4l-4.7-1.1q-3.5-.8-6-2.6-2.6-1.7-3.7-4.4-1.2-2.6-.3-6zm11.5 19.2q-.5.5-1.1 1l2.3-1.3q-.6.2-1.2.3zm3.2-5.1 5.8 1.4q1.1-2.4 1.9-5.3l-4.2-1-.8-.1-1.2-.3q-.7 2.9-1.4 4.9-.1.2-.1.4zm1.6-5.7q.5-2 .5-4 0-2.1-.6-4.1-.5-1.9-1.7-3.6-.8-1.1-2-2-2.3.5-3.8 1.8-2.1 1.9-2.6 4.3-.4 1.5.1 3 .5 1.3 2 2.4 1.4 1.2 3.7 1.7l4.3.9q.1-.2.1-.4zm-3.8-13.7q.9-.3 2-.4l-3.3-.5q.7.4 1.3.9zm32.6 20.8q.6.5 1.1 1l1.6-.4zm16.8 3.9q0 .7.2 1.1l2.3-.5zm5.9 1.4-2.6-.5 2 3.1zm1.9-22.6q-1.3-.3-2-1.3-.7-1-.4-2.5.4-1.4 1.4-2 1.1-.6 2.4-.3 1.3.3 1.9 1.3.7 1.1.4 2.5-.2 1.4-1.4 2-1 .6-2.3.3zm9.8 25.1q0 .8.2 1.3l2.4-.7zm12.6 8.6 7.7-33.4 6.7.8v.4q-.4.8-.8 1.9-.2 1.2-.6 2.5-.3 1.3-.5 2.2l-6.2 27zm21.3 5.8h.4q1.5 3.6 3.8 5.3 2.3 1.8 4.6 2.3 1.3.3 2.2.1.5 0 1-.2.3-.4.6-1.1.9-1.5 1.6-3.5.7-2 1.2-4.2l6.9-29.5 5.9.6.5.1-6.7 28.7-1.3-.4-1.3 5.5 1 .3q-1 2.3-2.3 4-2.6 3.3-5.9 4.3-3.3 1.1-6.8.4-1.8-.5-3.3-1.4-1.4-1-2.5-2.1-1-1.2-1.8-2.4-.8-1.1-1.1-2.1zm22-1.4 6.4 1.4-.1.2 5.9 1.3q0-.3 0-.8.1-1.3.6-2.9l5.5-24.3 6 .6.5.1-6.6 28.7 6.2 1.4 5 1.2q-.4-.7-.5-1.6-.3-1.5.1-3.3.4-1.7 1.5-3.3 1.2-1.5 3.2-3 2-1.4 5.1-2.8 3.2-1.4 7.6-2.9l.3.2.6 5.7q-4.2 1.5-6.9 2.8-2.7 1.3-4.1 2.5-1.4 1.2-1.7 2.8-.5 1.7.7 3.1 1.1 1.5 3.3 2l10.4 2.4-.1.4-3 4.5-23.7-5.4-18-4.3-5.8-1.3q.8-2.1 1.5-4.8zm-10 9q-.5.8-1 1.3l2.3-1.8q-.7.3-1.3.5zm22.1-6q.1.8.2 1.2l2.4-.6zm6 1.4-2.6-.6 2 3.3zm11.2 2.6q.3.6.7 1 .9 1.2 2.1 1.9l1.7-1.9z" fill="#fff" fill-rule="evenodd"/><path d="m754.2 660.9-17.7 8.2-3.1-6.6 18.6-8.7 2.6 5.8zm-33 15.4-.2-.5-.5-7.2 14.7-6.9q2.8-1.3 3.6-2.6.8-1.3 0-3-.6-1.3-1.8-2.2-1.2-1-2.3-1.4l3.3-1.3q-1.7 1.3-2.9 2.1-1.2.8-2.3 1.5-1.1.6-2.5 1.2l-1.7.8q-1.3.7-3.1 1.4-1.6.6-3.5 1.1-1.8.5-3.6.6l-.9-7 .4-.2q2.2-.3 4.7-1.2 2.4-.9 4.6-2l1.4-.6q2.1-1 4.1-2 2-1.1 3.2-2.1l.5-.2q1.6.5 3.4 1.5 1.9 1 3.5 2.4 1.7 1.5 2.6 3.4 1 2.2.9 4.6-.1 2.4-1.9 5l-.4 2.9q-.9 1-2.2 1.8-1.3.9-3 1.6zm67.4-31.5-34.4 16.1-2.6-5.7.4-1.3 21.5-10.1-1.2 1.7q-3.1-.1-6.8-.9-3.7-1-7.9-2.4-4.2-1.5-8.6-3.4l1.7-8 .5-.2q8 3.1 13.7 5.1 5.8 1.9 9.6 2.7 3.9.9 6.3.9 2.4 0 3.6-.6l3.5-1.6.2.5zm-20.3 18.6q-.8-1.7-.2-3 .6-1.4 2.1-2.1 1.5-.7 2.9-.3 1.5.4 2.3 2.1.7 1.7.1 3.1-.5 1.4-2 2.1-1.5.7-3 .2-1.4-.4-2.2-2.1zm20.6-31.1q-1.2-2.6-1.3-5.3-.1-2.8.7-5.3.8-2.5 2.5-4.4 1.6-2 4-3.1 2.3-1.1 5-.9 2.9 0 5.7 1.4 2.8 1.3 5.4 3.8 2.5 2.5 4.2 6.3 2.7 5.7 2.8 10.6.1 4.8-2.2 8.4-2.3 3.5-6.9 5.7-2.9 1.3-5.3 1.8-2.4.5-3.8.5-1.5 0-1.5 0l-.5-7.1.5-.3q2.3.1 4.5-.5 2.3-.6 3.7-1.3 1.9-.9 3.2-2 1.4-1.1 2.1-2.4l-1.2 2.8q.4-1.2.2-2.8-.1-1.6-.8-3.9-.7-2.2-2.2-5.4-.9-2-2.2-3.7-1.3-1.7-3-2.9-1.6-1.3-3.6-1.9-1.9-.7-4.2-.7l3.7-1.7q-2.5 2.2-3.1 5-.6 2.7.5 5 .5 1.1 1.6 1.9 1.1.7 2.7.9 1.6 0 3.6-.9l4.4-2.1.3-.3 10.1-4.7 2.6 5.7-.4 1.3-14.4 6.8q-3.6 1.7-7 1.9-3.4.1-6.2-1.4-2.7-1.5-4.2-4.8zm36.7-4.8-5.8 2.7-2.7-5.7.5-1.3 8.2-3.9-2 2.5q-.8-.3-1.6-1.6-.8-1.2-1.7-3.1l-5.8-12.4 6.9-4.3.5-.2 7.2 15.5q.4.9 1.1 2.2.6 1.3 1.3 2.5.6 1.2 1.2 2l.2.3q-1.1 1.2-2.9 2.3-1.8 1.2-4.6 2.5zm-5.1-31.8q-1.4.7-2.9.2-1.5-.4-2.3-2.1-.8-1.6-.2-3 .7-1.4 2.1-2.1 1.5-.7 3-.3 1.4.5 2.2 2.1.8 1.7.2 3.1-.6 1.4-2.1 2.1zm-7.6 4.7q-1.5.7-2.9.2-1.5-.4-2.3-2.1-.8-1.7-.2-3.1.6-1.4 2.1-2.1 1.4-.6 2.9-.2 1.5.5 2.2 2.2.8 1.6.2 3-.6 1.4-2 2.1zm57.3 6.2-15.5 7.3q-2.5 1.1-4.6.1-2.1-1-3.5-4 .5-.7.9-1.8.4-1 .8-2.9.3-1.9.6-5.1l.6-7 2.6 5.6-20.7-14.5-.2-.5 7.7-3.7 13.4 10.1-2.7 1.7 1.5-17.4 7.6-3.6.2.5-2.1 28.4q-.2 2.2-.4 3.5-.3 1.2-.7 2-.4.7-.9 1.4l-2.3.2 12.1-5.7 2.4 5.1-7.5-5.4.5-5 .3-.2 12.4 8.5.2.3q-.3.6-1 1.2-.7.5-1.7.9zm-91.8 125.8-6.3 2.9-3.1-6.6 7.2-3.4 2.7 5.8zm-25.9 12.2.4-.2q3.3 1.6 6.2 1.5 2.9-.1 4.9-1.1 1.2-.5 1.8-1.1.6-.7 1.1-1.5l-.7 2.8q.2-1.3-.1-3.2-.4-1.9-1.1-4.1-.8-2.2-1.8-4.3l-13-28 6.9-4.2.5-.2 13.1 28q2.7 5.9 2.7 10.5 0 4.7-2.3 8-2.3 3.3-6.3 5.2-2.1 1-4.1 1.2-1.9.1-3.4-.2-1.7-.3-2.8-.8-1.1-.4-1.6-.7zm38.3-18-3.1-6.6 26.9-12.6q1.9-.9 2.8-1.8.9-.9 1-1.9.2-.9-.2-1.8-.7-1.4-1.8-2.3-1.2-1-2.4-1.4l3.4-1.2q-1.7 1.3-2.9 2.1-1.2.9-2.3 1.5-1.1.6-2.5 1.3l-24.6 11.5-.6-7.8 23.5-11q2.1-1 4.1-2 2-1.1 3.2-2l.5-.3q1.7.6 3.6 1.7 2 1.2 3.7 2.8 1.7 1.6 2.7 3.6.9 2 1.1 4 .3 2-.5 4-.7 2-2.6 3.8-1.8 1.8-5.1 3.4zm-15 0 .5-1.3 8.2-3.8-2.1 2.4q-.7-.3-1.5-1.5-.8-1.1-1.7-3l-4.7-10.1 7-4.2.4-.2 8.4 17.8-4.7-1.8 9-4.2 2.7 5.7-.5 1.4-18.3 8.5zm60.4-21.3-15.4-32.9 7.7-4.5.3.2q.2.9.6 2.2.5 1.2 1.1 2.5.6 1.2 1 2.1l12.5 26.8zm9-16.6q-1.2-2.6-1.4-5.3-.1-2.7.8-5.2.8-2.5 2.4-4.5 1.7-2 4-3.1 2.4-1.1 5.1-.9 2.8.1 5.7 1.4 2.8 1.3 5.4 3.9 2.5 2.5 4.2 6.2 2.7 5.8 2.8 10.6.1 4.8-2.2 8.4-2.3 3.6-6.9 5.7-2.9 1.3-5.3 1.8-2.4.5-3.8.5-1.5.1-1.5.1l-.5-7.2.5-.2q2.3 0 4.5-.6 2.2-.6 3.7-1.3 1.9-.9 3.2-1.9 1.3-1.1 2.1-2.5l-1.2 2.9q.3-1.3.2-2.9-.1-1.6-.8-3.8-.7-2.2-2.2-5.4-.9-2.1-2.2-3.7-1.3-1.8-3-3-1.6-1.2-3.6-1.9-2-.7-4.2-.6l3.7-1.7q-2.6 2.1-3.2 4.9-.5 2.7.5 5 .6 1.1 1.7 1.9 1.1.8 2.7.9 1.6.1 3.6-.9l4.4-2 .2-.4 10.2-4.7 2.6 5.7-.4 1.3-14.4 6.8q-3.6 1.7-7.1 1.9-3.4.1-6.1-1.4-2.7-1.5-4.2-4.8zm28.2-7.8.5-1.3 8.6-4-1.2 1.8q-2.6-.6-4.9-2.2-2.4-1.6-3.8-4.6-1.5-3.3-1-6.4.5-3.2 2.8-5.8 2.4-2.7 6.1-4.4 2.3-1.1 5.2-1.9 2.9-.8 5.9-1.1l.3.3q.2.9.8 2.2.5 1.4 1.1 2.8.6 1.4 1 2.3l6.7 14.4v.5q-1.1 1.1-2.9 2.3-1.8 1.2-4.6 2.5l-17.9 8.4zm7-13.7q1 2 3 3.4 2 1.2 4.7 1.4 2.7.2 5.5-1.1l-.9 3.5-5-10.6q-.9-1.8-1.3-3.2-.4-1.3-.6-2.6l1.5 1.4q-.5 0-1.2.1-.6.1-1.4.3-.7.1-1.6.6-2.3 1-3 3-.6 1.9.3 3.8zm-1.3-15.9q-1.4.7-2.9.3-1.4-.5-2.2-2.2-.8-1.7-.2-3 .6-1.4 2-2.1 1.5-.7 3-.3 1.4.4 2.2 2.1.8 1.7.2 3.1-.6 1.4-2.1 2.1zm-25 128.3-17.6 8.3-3.1-6.6 18.5-8.7 2.7 5.7zm-33 15.5-.2-.5-.6-7.3 14.8-6.9q2.8-1.3 3.6-2.5.8-1.4 0-3-.6-1.4-1.8-2.3-1.2-.9-2.3-1.4l3.3-1.2q-1.7 1.2-2.9 2.1-1.2.8-2.3 1.4-1.2.7-2.5 1.3l-1.7.8q-1.4.6-3.1 1.3-1.7.7-3.5 1.2-1.8.4-3.6.5l-.9-7 .4-.2q2.2-.3 4.7-1.2 2.4-.9 4.6-1.9l1.4-.7q2.1-1 4.1-2 2-1.1 3.1-2l.6-.3q1.6.6 3.4 1.6 1.9 1 3.5 2.4 1.7 1.4 2.5 3.3 1.1 2.2 1 4.7-.1 2.4-1.9 4.9l-.4 3q-1 .9-2.2 1.8-1.3.8-3 1.6zm30.3-21.2.5-1.3 11-5.1.7 4.7-6.5-6.1q-.6-.6-1.8-1.6-1.2-1-2.5-2-1.4-1.1-2.6-1.8-1.2-.9-2-1.2l-.4-.4q1.2-2.4 2.9-4.7 1.8-2.3 4.1-4.2 2.2-1.9 4.8-3.2 3.5-1.6 6.7-1.6 3.2.1 5.6 1.7 2.4 1.5 3.7 4.2.9 2 1 4.2.1 2.2-.5 4.3-.6 2.2-1.7 3.8l-2.2-.5 11-5.1 2.7 5.7-.4 1.3-31.4 14.7zm13-11.3 5.2 5.2h-3.6q1.4-1.6 2.4-3.5 1-1.8 1.3-3.9.2-2.1-.8-4.4-1.1-2.3-3.1-3-2-.8-4.2.3-1.9.8-3.2 2.3-1.2 1.5-1.8 2.6l-.7-2.3q1.5.6 2.7 1.5 1.2.8 2.5 2 1.3 1.2 3.3 3.2zm25.9.1-5.8 2.7-2.7-5.7.5-1.3 8.2-3.9-2.1 2.4q-.7-.3-1.6-1.5-.8-1.2-1.7-3.1l-5.8-12.5 7-4.2.5-.2 7.2 15.5q.4.8 1 2.2.7 1.2 1.3 2.5.7 1.2 1.3 1.9l.1.4q-1.1 1.1-2.8 2.3-1.8 1.2-4.6 2.5zm2.9 7.4q-.8-1.7-.2-3.1.6-1.4 2.1-2.1 1.5-.7 2.9-.2 1.5.4 2.2 2.1.8 1.6.2 3-.6 1.4-2 2.1-1.5.7-3 .3-1.4-.5-2.2-2.1z" fill="#77554c"/></svg>