<?xml version="1.0" encoding="UTF-8" standalone="no"?>
<!DOCTYPE svg PUBLIC "-//W3C//DTD SVG 1.1//EN" "http://www.w3.org/Graphics/SVG/1.1/DTD/svg11.dtd">
<svg xmlns="http://www.w3.org/2000/svg" version="1.1" viewBox="0.00 0.00 512.00 512.00">
<path fill="#77554c" d="
  M 101.13 0.00
  L 108.26 0.00
  Q 123.11 1.08 136.10 7.53
  Q 138.60 8.77 153.26 17.80
  Q 295.85 105.65 438.40 193.56
  Q 449.81 200.60 454.70 205.08
  C 488.90 236.44 482.92 292.05 443.53 316.19
  Q 335.82 382.19 226.07 449.32
  C 221.65 452.02 216.80 453.63 211.55 452.66
  Q 199.56 450.44 195.63 439.07
  C 192.68 430.57 196.31 420.86 203.97 416.16
  Q 310.98 350.48 418.43 284.86
  Q 426.85 279.71 429.87 276.16
  C 442.32 261.50 438.43 240.46 422.28 230.51
  Q 269.80 136.47 121.38 45.02
  Q 109.97 37.99 98.40 40.78
  C 84.50 44.12 74.82 55.73 74.81 69.96
  Q 74.75 253.75 74.75 438.06
  Q 74.75 445.85 76.04 449.88
  C 81.07 465.58 97.96 476.51 114.00 470.19
  C 118.01 468.61 121.47 465.99 125.59 464.81
  C 141.56 460.28 155.13 476.24 149.33 491.49
  Q 146.81 498.10 138.91 502.38
  Q 123.57 510.70 108.13 512.00
  L 101.26 512.00
  Q 71.85 509.69 52.85 488.40
  Q 34.86 468.24 34.88 439.14
  Q 35.01 250.23 34.86 74.65
  Q 34.85 63.59 36.08 56.83
  Q 39.20 39.78 49.84 26.61
  Q 69.15 2.72 101.13 0.00
  Z"
/>
</svg>
