<svg width="36" height="35" viewBox="0 0 36 35" fill="none" xmlns="http://www.w3.org/2000/svg">
<g clip-path="url(#clip0_12_60)">
<path d="M15.1209 0C15.5126 0.0548012 15.9061 0.0984709 16.2952 0.16526C19.7318 0.753517 22.6007 2.32477 24.8524 4.91841C26.4448 6.75339 27.473 8.87095 27.9 11.236C28.5294 14.7184 27.8727 17.9731 25.9457 20.9786C25.9026 21.0454 25.8639 21.1147 25.7318 21.2826C25.8515 21.3536 25.9915 21.405 26.0883 21.4992C28.9404 24.2658 31.7829 27.0427 34.6412 29.8024C35.2565 30.3967 35.8146 31.0055 35.9994 31.8592V32.6795C35.8093 33.3611 35.51 33.9716 34.9167 34.4237C33.9176 35.1858 32.4545 35.1969 31.4669 34.4237C31.2943 34.2884 31.1306 34.1395 30.9739 33.987C28.0161 31.1125 25.0593 28.2372 22.1042 25.3601C22.0135 25.2719 21.9404 25.1675 21.8973 25.1161C21.0091 25.5442 20.2036 25.9869 19.3551 26.3311C17.061 27.2619 14.6684 27.5556 12.2054 27.2208C8.58305 26.7293 5.59009 25.1024 3.24766 22.3872C1.54256 20.4109 0.512627 18.1187 0.142909 15.555C-0.280507 12.6197 0.24238 9.83939 1.67284 7.23719C3.0628 4.70862 5.09185 2.78544 7.72654 1.4822C9.32777 0.690153 11.0206 0.204648 12.8128 0.0556575C12.8806 0.0496636 12.9457 0.0188379 13.0117 0C13.7151 0 14.4176 0 15.1209 0ZM14.4598 25.9647C21.5584 25.7609 27.3577 19.7473 26.65 12.475C26.0452 6.26104 20.3779 0.781774 12.8331 1.4411C6.4378 2.0011 0.796958 7.54031 1.49238 14.8725C2.09713 21.2483 7.72566 26.141 14.4598 25.9647ZM26.047 27.2456C26.0408 27.2388 26.0857 27.2902 26.135 27.3381C28.113 29.2613 30.091 31.1845 32.069 33.1068C32.1596 33.195 32.2547 33.2806 32.3568 33.3568C32.8744 33.7404 33.5734 33.7207 34.0725 33.3131C34.7662 32.7472 34.767 31.8849 34.0602 31.1956C32.0857 29.2698 30.1059 27.3484 28.1279 25.4252C28.0716 25.3704 28.0091 25.3216 28.0162 25.3276C27.3595 25.9672 26.7169 26.5932 26.0461 27.2465L26.047 27.2456ZM26.9281 24.3506C26.216 23.6553 25.569 23.0234 25.0179 22.4856C24.3903 23.0953 23.7433 23.7246 23.1077 24.3429C23.6702 24.8875 24.3146 25.5108 25.0434 26.2164C25.6711 25.5956 26.3137 24.9594 26.9281 24.3506Z" fill="#E6DAC8"/>
<path d="M25.3125 13.7029C25.294 19.737 20.2183 24.6391 14.0185 24.6109C7.82658 24.5826 2.80105 19.6616 2.81954 13.6446C2.83803 7.61052 7.91373 2.70838 14.1136 2.73663C20.3055 2.76489 25.331 7.68587 25.3125 13.7029ZM23.8882 14.0274C24.1021 9.08758 20.1822 4.36269 14.4287 4.12293C9.34947 3.91058 4.49119 7.72611 4.24384 13.321C4.02553 18.2608 7.94894 22.9857 13.7025 23.2254C18.7817 23.4378 23.6373 19.6223 23.8882 14.0274Z" fill="#E6DAC8"/>
<path d="M14.3125 5.4724C17.5872 5.51864 20.7755 7.71069 21.9049 10.6349C22.0731 11.0698 21.9349 11.456 21.5563 11.611C21.1567 11.7745 20.7967 11.6076 20.5889 11.1349C19.7465 9.21858 18.3275 7.88537 16.2984 7.22176C15.6426 7.0077 14.9313 6.93491 14.2394 6.85014C13.6681 6.78078 13.3512 6.55901 13.3671 6.12659C13.3838 5.6976 13.7095 5.46727 14.294 5.4724C14.3292 5.4724 14.3644 5.4724 14.3125 5.4724Z" fill="#E6DAC8"/>
<path d="M21.7843 12.9939C22.1752 12.9862 22.5 13.2953 22.4982 13.6763C22.4974 14.0428 22.191 14.3459 21.8143 14.3536C21.4225 14.3613 21.0986 14.0522 21.1003 13.6712C21.1012 13.3047 21.4076 13.0016 21.7843 12.9939Z" fill="#E6DAC8"/>
</g>
<defs>
<clipPath id="clip0_12_60">
<rect width="36" height="35" fill="white"/>
</clipPath>
</defs>
</svg>
