<svg viewBox="0 0 512 512" xmlns="http://www.w3.org/2000/svg"><g fill="#f7f1ec"><path d="m0 75.43v-2.96c2.02-10.48 8.81-13.49 18.8-13.48q38.32.03 76.74 0 .52 0 .64-.5c14.64-58.44 90.77-73.34 124.58-22.4 16.79 25.28 15.04 59.08-4.74 82.31-18.42 21.64-48.31 30.35-75.36 20.6q-34.4-12.41-44.69-49.51-.13-.47-.62-.47-38.48-.07-77.07-.01c-9.79.02-16.41-3.27-18.28-13.58zm202.11-1.41a38.77 38.77 0 0 0 -38.77-38.77 38.77 38.77 0 0 0 -38.77 38.77 38.77 38.77 0 0 0 38.77 38.77 38.77 38.77 0 0 0 38.77-38.77z"/><path d="m512 72.58v2.97c-1.79 9.66-8.14 13.45-17.41 13.45q-109.75 0-219.51 0-6.37 0-9.43-1.39c-12.05-5.49-11.47-22.36.5-27.31q3.18-1.31 8.9-1.31 109.09.03 218.17 0c10.02 0 16.81 3.03 18.78 13.59z"/><path d="m512 254.57v2.72c-1.87 10.75-8.71 13.73-18.85 13.72q-29.84-.02-59.73-.01-.6.01-.74.59c-7.87 32.45-37.38 55.22-71.16 53.15-41.99-2.57-72.23-41.53-63.35-83.38 8.45-39.82 51.11-64.33 89.93-50.37q34.43 12.38 44.73 49.51.13.47.62.47 29.81.09 59.8.02c10.04-.03 16.79 3 18.75 13.58zm-107.72 1.43a38.77 38.77 0 0 0 -38.77-38.77 38.77 38.77 0 0 0 -38.77 38.77 38.77 38.77 0 0 0 38.77 38.77 38.77 38.77 0 0 0 38.77-38.77z"/><path d="m0 257.42v-3.19c2.25-10.45 8.84-13.24 18.9-13.24q117.46.01 234.91.01 6.27 0 9.19 1.2c12.14 5.02 11.73 22.77-.34 27.7q-2.69 1.09-8.1 1.09-117.83.01-235.67.01c-10.14.01-16.9-2.89-18.89-13.58z"/><path d="m0 439.43v-2.98c1.77-9.56 8.08-13.45 17.26-13.45q30.62 0 61.31 0 .59 0 .73-.58c7.66-30.95 34.92-53.61 67.23-53.38 61.02.43 91.7 73.53 48.98 117.3-38.47 39.41-102.96 19.37-116.24-32.84q-.12-.49-.63-.49-29.95-.04-59.94-.01c-9.94.02-16.76-3.09-18.7-13.57zm185.26-1.46a38.78 38.78 0 0 0 -38.78-38.78 38.78 38.78 0 0 0 -38.78 38.78 38.78 38.78 0 0 0 38.78 38.78 38.78 38.78 0 0 0 38.78-38.78z"/><path d="m512 436.57v2.73c-1.78 10.32-8.57 13.69-18.33 13.69q-117.42.01-234.83.01-6.61 0-9.53-1.1c-12.26-4.63-12.2-22.4-.36-27.67q2.74-1.22 7.91-1.22 118.89-.01 237.78-.01c9.32 0 15.63 3.84 17.36 13.57z"/></g></svg>