<?xml version="1.0" encoding="UTF-8" standalone="no"?>
<!DOCTYPE svg PUBLIC "-//W3C//DTD SVG 1.1//EN" "http://www.w3.org/Graphics/SVG/1.1/DTD/svg11.dtd">
<svg xmlns="http://www.w3.org/2000/svg" version="1.1" viewBox="0.00 0.00 512.00 512.00">
<path fill="#3c2a21" d="
  M 358.32 0.00
  L 365.82 0.00
  Q 404.14 3.05 427.10 31.48
  C 461.55 74.13 445.82 137.42 396.33 160.07
  C 363.37 175.16 325.27 166.97 300.29 140.56
  Q 299.89 140.13 299.39 140.44
  L 162.34 225.33
  Q 161.88 225.61 162.07 226.12
  Q 173.06 255.97 162.06 285.83
  Q 161.86 286.36 162.35 286.67
  L 299.51 371.63
  Q 299.87 371.86 300.16 371.55
  C 335.09 334.65 393.69 335.32 426.27 374.73
  C 470.67 428.44 434.18 508.66 364.67 512.00
  L 359.45 512.00
  C 301.44 509.57 263.22 452.43 283.64 398.18
  A 0.49 0.49 0.0 0 0 283.44 397.60
  L 146.15 312.57
  A 0.63 0.62 36.8 0 0 145.35 312.68
  C 117.23 343.06 71.11 348.78 36.84 325.19
  Q 3.11 301.97 0.00 258.98
  L 0.00 253.15
  Q 3.16 209.02 38.22 185.87
  C 72.61 163.18 117.70 169.58 145.40 199.31
  Q 145.74 199.67 146.17 199.41
  L 283.32 114.48
  Q 283.81 114.18 283.61 113.63
  C 263.06 58.79 301.65 3.61 358.32 0.00
  Z
  M 414.98 83.80
  A 53.16 53.16 0.0 0 0 361.82 30.64
  A 53.16 53.16 0.0 0 0 308.66 83.80
  A 53.16 53.16 0.0 0 0 361.82 136.96
  A 53.16 53.16 0.0 0 0 414.98 83.80
  Z
  M 136.96 255.99
  A 53.16 53.16 0.0 0 0 83.80 202.83
  A 53.16 53.16 0.0 0 0 30.64 255.99
  A 53.16 53.16 0.0 0 0 83.80 309.15
  A 53.16 53.16 0.0 0 0 136.96 255.99
  Z
  M 414.98 428.19
  A 53.16 53.16 0.0 0 0 361.82 375.03
  A 53.16 53.16 0.0 0 0 308.66 428.19
  A 53.16 53.16 0.0 0 0 361.82 481.35
  A 53.16 53.16 0.0 0 0 414.98 428.19
  Z"
/>
</svg>
