<?xml version="1.0" encoding="UTF-8"?>
<svg version="1.1" xmlns="http://www.w3.org/2000/svg" width="512" height="512">
<path d="M0 0 C9.80971929 7.41060316 9.80971929 7.41060316 11.15625 13.62890625 C12.36684082 13.6131958 13.57743164 13.59748535 14.82470703 13.58129883 C19.33098658 13.52685656 23.83723724 13.49250418 28.34375 13.46411133 C30.29139094 13.44905726 32.23899816 13.42860945 34.18652344 13.40258789 C36.99162128 13.36605572 39.79626954 13.34914592 42.6015625 13.3359375 C43.90034836 13.31271172 43.90034836 13.31271172 45.22537231 13.28901672 C51.31562491 13.2873346 55.56294062 14.30319915 60.23828125 18.49609375 C60.80933594 19.15867187 61.38039063 19.82125 61.96875 20.50390625 C62.55269531 21.16132812 63.13664062 21.81875 63.73828125 22.49609375 C65.33604682 24.89934445 65.66679653 26.81302379 66.15625 29.62890625 C67.05890091 29.6200238 67.96155182 29.61114136 68.89155579 29.60198975 C77.43815641 29.52152207 85.98462803 29.46077923 94.5315218 29.42165756 C98.92458191 29.40086785 103.3173265 29.37270984 107.71020508 29.32714844 C111.95721178 29.28338044 116.20391682 29.25970451 120.45113182 29.24939728 C122.06370981 29.242061 123.67627309 29.22773633 125.28872108 29.20598602 C135.57237393 29.07290773 145.25834933 29.27327271 153.875 35.63671875 C154.4628125 36.33539063 155.050625 37.0340625 155.65625 37.75390625 C156.2646875 38.43710937 156.873125 39.1203125 157.5 39.82421875 C162.74140057 48.6999867 162.59357519 58.27562272 162.56030273 68.28051758 C162.56601483 69.8403675 162.57298232 71.40021324 162.58110046 72.96005249 C162.59894496 77.16840052 162.59788118 81.37653909 162.59215808 85.58491349 C162.58905653 89.10418391 162.59516871 92.62341464 162.60119683 96.14267939 C162.61520897 104.44207739 162.61370569 112.74137235 162.60229492 121.04077148 C162.59078975 129.59791141 162.60493701 138.15473879 162.6316914 146.71183759 C162.65383689 154.0708899 162.66048918 161.42984399 162.65461498 168.78892726 C162.65124473 173.17928009 162.65366625 177.56943212 162.67086601 181.95975685 C162.68631707 186.08282311 162.68240047 190.20542437 162.66356087 194.32847214 C162.65987125 195.84057081 162.66299436 197.35270384 162.67344666 198.86477089 C162.68663268 200.92994125 162.67513384 202.99356615 162.65745544 205.05867004 C162.65724616 206.21359357 162.65703688 207.36851709 162.65682125 208.5584383 C162.04885654 212.28765 160.76544372 213.9472001 158.15625 216.62890625 C155.26763291 218.0732148 153.35977299 218.00579131 150.15625 217.62890625 C146.96428853 215.09671008 145.350053 213.58579546 144.53098011 209.54167843 C144.5307285 207.79760377 144.5307285 207.79760377 144.5304718 206.01829529 C144.52352726 205.3675606 144.51658271 204.71682592 144.50942773 204.046372 C144.49221093 201.87333187 144.51044704 199.70206366 144.52856445 197.52905273 C144.52338469 195.96831407 144.51598394 194.40758143 144.50653076 192.84686279 C144.49097341 189.4898679 144.4911341 186.13337235 144.50353432 182.77636528 C144.52307175 177.46933085 144.50788145 172.16274066 144.48808289 166.85572815 C144.46093597 158.46348548 144.45744176 150.07142378 144.46385592 141.67914587 C144.47479759 126.64544337 144.45022729 111.61179519 144.41010827 96.57814842 C144.39702384 91.30138582 144.39578605 86.02478882 144.4042412 80.74801815 C144.40786244 77.46789605 144.40357026 74.18781639 144.3973999 70.90769958 C144.39631319 69.38550727 144.39868321 67.86330802 144.4047451 66.3411274 C144.41261755 64.26480604 144.40832026 62.18884908 144.40107727 60.11253357 C144.40204061 58.95019416 144.40300394 57.78785475 144.40399647 56.59029293 C144.16114582 53.68742744 143.73310525 52.04739264 142.15625 49.62890625 C138.72414893 47.12124396 135.2335992 47.35349383 131.09277344 47.31005859 C130.38993225 47.30001297 129.68709106 47.28996735 128.96295166 47.27961731 C126.64718418 47.24880506 124.33153221 47.23175589 122.015625 47.21484375 C120.40707405 47.1961305 118.7985329 47.17655696 117.19000244 47.15615845 C112.9617694 47.10484774 108.73350454 47.0652164 104.50512695 47.02801514 C100.18823379 46.98796881 95.87147289 46.93687934 91.5546875 46.88671875 C83.08863204 46.78997203 74.62251108 46.70556331 66.15625 46.62890625 C66.18243408 47.19287109 66.20861816 47.75683594 66.2355957 48.33789062 C66.34060201 50.9346035 66.40489373 53.53086845 66.46875 56.12890625 C66.51064453 57.01578125 66.55253906 57.90265625 66.59570312 58.81640625 C66.71659321 65.39282676 65.33524402 69.52605329 61.15625 74.62890625 C56.29516989 79.36534328 51.13578499 80.87536007 44.43263245 80.88960266 C43.31541809 80.89668747 42.19820374 80.90377228 41.0471344 80.91107178 C39.83605515 80.90859436 38.62497589 80.90611694 37.37719727 80.90356445 C35.44691177 80.91123085 35.44691177 80.91123085 33.47763062 80.91905212 C29.95900401 80.9324062 26.44048505 80.93302485 22.92183805 80.93048882 C19.97955941 80.92941673 17.03730234 80.93430853 14.09502834 80.93909425 C7.15147048 80.95017686 0.20796672 80.95063377 -6.7355957 80.94458008 C-13.88838318 80.93853969 -21.04097398 80.9508557 -28.19372791 80.97215015 C-34.34508783 80.98978702 -40.49638525 80.99576425 -46.64776951 80.9925124 C-50.31722526 80.99070283 -53.98654068 80.99330313 -57.65597343 81.00722694 C-61.74921239 81.02217879 -65.8420529 81.01281699 -69.93530273 81.0012207 C-71.74888527 81.01268631 -71.74888527 81.01268631 -73.59910583 81.02438354 C-83.02709904 80.96533991 -88.88547319 79.42904041 -95.84375 72.62890625 C-99.39150008 67.24467377 -99.20401519 62.46459317 -99.03125 56.25390625 C-99.01094727 54.86365234 -99.01094727 54.86365234 -98.99023438 53.4453125 C-98.95508881 51.17256627 -98.90589132 48.90104778 -98.84375 46.62890625 C-108.16244476 46.7132816 -117.48095625 46.80815396 -126.79940414 46.91643333 C-131.12632795 46.96638174 -135.45322752 47.0127119 -139.78027344 47.05078125 C-143.95602032 47.08765247 -148.13156369 47.13401739 -152.30713654 47.18696976 C-153.90029582 47.20550395 -155.49349872 47.22061553 -157.08672333 47.23225021 C-159.31811875 47.2491295 -161.54904907 47.27816797 -163.78027344 47.31005859 C-165.05046326 47.32338226 -166.32065308 47.33670593 -167.6293335 47.35043335 C-170.68951205 47.61554423 -172.38401197 47.83170035 -174.84375 49.62890625 C-177.04622059 53.03657731 -177.09427193 55.88496064 -177.09543228 59.88835144 C-177.10064778 61.1827052 -177.10586327 62.47705896 -177.11123681 63.81063557 C-177.10691253 65.25030383 -177.10239921 66.68997153 -177.09771729 68.12963867 C-177.10002089 69.65641777 -177.10319674 71.18319576 -177.10717177 72.70997143 C-177.11554216 76.91182392 -177.11138434 81.11358588 -177.10519934 85.31543875 C-177.10068501 89.84446427 -177.10765353 94.37347394 -177.11315918 98.90249634 C-177.12206574 107.7773734 -177.12012556 116.65221668 -177.1143339 125.52709508 C-177.10982237 132.73806743 -177.10920229 139.9490303 -177.11138153 147.16000366 C-177.111688 148.18519047 -177.11199446 149.21037728 -177.11231022 150.26663035 C-177.11294965 152.34909129 -177.11359807 154.43155223 -177.1142554 156.51401317 C-177.11996239 176.05437327 -177.11339501 195.59471461 -177.10265467 215.13507164 C-177.09371882 231.91199725 -177.09527076 248.6888952 -177.10449219 265.46582031 C-177.1151883 284.93489825 -177.11941303 304.40395974 -177.11326766 323.8730402 C-177.11263054 325.94796308 -177.1120018 328.02288596 -177.11138153 330.09780884 C-177.1109187 331.62927584 -177.1109187 331.62927584 -177.11044653 333.19168156 C-177.10871761 340.39637692 -177.11163893 347.60106187 -177.11634064 354.80575562 C-177.12194216 363.58244247 -177.12044841 372.35909354 -177.10977915 381.13577628 C-177.1045126 385.61620921 -177.10248238 390.0965824 -177.10907745 394.57701492 C-177.11501872 398.67517649 -177.11179207 402.77322273 -177.10112235 406.87137377 C-177.09888056 408.35718249 -177.10004197 409.84300087 -177.10487393 411.32880342 C-177.11092194 413.34234934 -177.10354567 415.3559224 -177.09543228 417.36946106 C-177.09494522 419.04988857 -177.09494522 419.04988857 -177.09444833 420.76426411 C-176.84076006 423.66307129 -176.52374176 425.26901392 -174.84375 427.62890625 C-172.05613506 429.48328893 -169.84602944 429.87858349 -166.53647614 429.87665272 C-165.67754682 429.88103472 -164.81861751 429.88541671 -163.93366003 429.8899315 C-162.99475754 429.88458617 -162.05585505 429.87924083 -161.08850098 429.87373352 C-160.08743521 429.87599809 -159.08636945 429.87826267 -158.05496836 429.88059586 C-154.69087844 429.88590516 -151.32697148 429.8770499 -147.96289062 429.8684082 C-145.55502768 429.86952071 -143.14716501 429.87157793 -140.73930359 429.87451172 C-135.54955376 429.8792393 -130.35983727 429.87824083 -125.17008972 429.87273598 C-116.96903428 429.86452408 -108.76805942 429.87574908 -100.5670166 429.88993835 C-97.76125354 429.89453935 -94.95549027 429.8989897 -92.14972687 429.90337658 C-91.44856966 429.90447472 -90.74741245 429.90557286 -90.02500805 429.90670428 C-82.04548377 429.91887622 -74.06595691 429.92643007 -66.08642578 429.93237305 C-65.35703641 429.93292111 -64.62764704 429.93346917 -63.87615496 429.93403383 C-52.04859384 429.94249835 -40.22105545 429.93915223 -28.39349419 429.9332187 C-16.25244506 429.92760518 -4.1115107 429.94111478 8.02950335 429.97077149 C15.51990689 429.98833019 23.00997901 429.98992565 30.50038111 429.97112634 C36.23657604 429.95817035 41.97248454 429.97101825 47.70863914 429.99355316 C50.06451863 429.99861766 52.42043421 429.99507151 54.77628517 429.98241997 C57.98506527 429.96640877 61.19229213 429.98086875 64.40100098 430.00312805 C65.33990346 429.99109055 66.27880595 429.97905306 67.24616003 429.96665078 C73.51829785 430.0557768 73.51829785 430.0557768 76.73470306 432.94536114 C78.60265335 436.47161042 78.72877196 438.69281776 78.15625 442.62890625 C75.93761971 445.53607698 74.63680071 446.46872268 71.15625 447.62890625 C69.77985148 447.72045318 68.39945622 447.75798379 67.02001858 447.76033401 C65.75061165 447.76609573 65.75061165 447.76609573 64.45556015 447.77197385 C63.52561943 447.77110737 62.59567872 447.77024088 61.63755798 447.76934814 C60.15584172 447.77380483 60.15584172 447.77380483 58.6441918 447.77835155 C55.31869426 447.78705542 51.99323265 447.78854824 48.66772461 447.79003906 C46.28944827 447.79466614 43.91117267 447.79969065 41.53289795 447.80508423 C35.05947142 447.81822318 28.58605179 447.82469312 22.11261439 447.82909489 C18.06866687 447.83185799 14.02472174 447.83609557 9.98077583 447.84059906 C-1.22008775 447.85279397 -12.42094942 447.86309156 -23.6218195 447.86647415 C-24.33882805 447.86669372 -25.0558366 447.86691328 -25.79457268 447.8671395 C-26.87264288 447.86746692 -26.87264288 447.86746692 -27.97249228 447.86780095 C-29.42884576 447.86824441 -30.88519925 447.86869098 -32.34155273 447.86914062 C-33.06395252 447.86936205 -33.7863523 447.86958348 -34.53064298 447.86981162 C-46.22490508 447.873756 -57.91910472 447.89119798 -69.61334271 447.91450015 C-81.62552027 447.93824209 -93.63766655 447.95067736 -105.64986795 447.95184207 C-112.39179187 447.95275745 -119.1336345 447.95847464 -125.87553596 447.97666168 C-132.22107159 447.99315002 -138.56645314 447.99529402 -144.91200256 447.98652267 C-147.23795421 447.98575264 -149.56391415 447.99009049 -151.88984489 447.99998093 C-155.07213664 448.01271631 -158.25388407 448.00681454 -161.43617249 447.99639893 C-162.35049815 448.00445533 -163.26482381 448.01251173 -164.20685631 448.02081227 C-173.43742186 447.9504523 -181.37796218 446.05726857 -188.15234375 439.59765625 C-193.34756485 433.55056287 -194.96654496 427.14504034 -194.97517776 419.32095814 C-194.98093948 417.36315236 -194.98093948 417.36315236 -194.9868176 415.36579496 C-194.98603735 413.91385125 -194.98515856 412.46190759 -194.98419189 411.00996399 C-194.98677542 409.47024991 -194.98978855 407.9305365 -194.9931953 406.39082402 C-195.00127003 402.15304497 -195.00305513 397.91528286 -195.00379276 393.67749703 C-195.0056425 389.1095224 -195.01318946 384.54155658 -195.01992798 379.97358704 C-195.03351538 369.98180393 -195.03953671 359.99002484 -195.04393864 349.99823403 C-195.04670047 343.76007963 -195.05093773 337.52192678 -195.05544281 331.28377342 C-195.0676362 314.0145353 -195.07793525 296.74529843 -195.0813179 279.4760561 C-195.08153747 278.37057403 -195.08175703 277.26509197 -195.08198325 276.12611045 C-195.08220153 275.01797143 -195.08241981 273.90983242 -195.0826447 272.76811343 C-195.08308817 270.52257367 -195.08353473 268.2770339 -195.08398438 266.03149414 C-195.0842058 264.91762702 -195.08442723 263.80375989 -195.08465537 262.65613922 C-195.0886033 244.60791308 -195.10605683 226.55972732 -195.1293439 208.51151679 C-195.15305555 189.98479178 -195.16551967 171.45808703 -195.16668582 152.9313466 C-195.16760271 142.52803899 -195.17335841 132.12478398 -195.19150543 121.72149086 C-195.20690392 112.86259588 -195.21202837 104.00376976 -195.20376733 95.14486394 C-195.19985989 90.62529958 -195.20079502 86.1058739 -195.21482468 81.5863266 C-195.22755789 77.44653809 -195.22637119 73.30699255 -195.21423396 69.1672044 C-195.21227596 67.67188205 -195.21536021 66.17654251 -195.22407833 64.68124429 C-195.27807026 54.79236685 -195.15025077 45.58908404 -188.34375 37.81640625 C-187.7559375 37.10871094 -187.168125 36.40101562 -186.5625 35.671875 C-177.3096436 28.71893837 -166.59933054 29.0896689 -155.58203125 29.23828125 C-153.93866164 29.24575761 -152.29528302 29.25144393 -150.65190125 29.25543213 C-146.3626265 29.27057891 -142.07390847 29.30976344 -137.78485107 29.35424805 C-133.39375333 29.39543976 -129.0025641 29.41349376 -124.61132812 29.43359375 C-116.02188221 29.47627066 -107.4328857 29.54438572 -98.84375 29.62890625 C-98.56273437 28.530625 -98.28171875 27.43234375 -97.9921875 26.30078125 C-96.28057175 20.82826829 -92.52805291 17.75177485 -87.84375 14.62890625 C-85.11268489 13.71855121 -83.54481761 13.50674912 -80.73950195 13.51538086 C-79.5085656 13.51549416 -79.5085656 13.51549416 -78.25276184 13.51560974 C-77.37142075 13.52077103 -76.49007965 13.52593231 -75.58203125 13.53125 C-74.22334175 13.53337242 -74.22334175 13.53337242 -72.83720398 13.53553772 C-69.94351909 13.54113624 -67.04991151 13.55368844 -64.15625 13.56640625 C-62.19466258 13.57142144 -60.23307394 13.57598432 -58.27148438 13.58007812 C-53.46220979 13.59110518 -48.652993 13.60836878 -43.84375 13.62890625 C-43.54734619 12.84717041 -43.25094238 12.06543457 -42.94555664 11.26000977 C-40.55678167 5.55563843 -35.27695993 1.06503366 -29.90625 -1.87109375 C-20.74926796 -5.41624478 -8.42882388 -5.06595408 0 0 Z " fill="#FFFFFF" transform="translate(255.84375,19.37109375)"/>
<path d="M0 0 C11.22090729 7.67660324 18.2916365 18.76442347 20.8125 32.125 C22.29102973 46.66387564 19.30259027 59.88915474 10.06640625 71.47265625 C0.88774855 81.46518507 -10.75542181 86.84634754 -24.2265625 88.0234375 C-37.12736349 88.55585151 -49.33126424 83.98226121 -58.9375 75.5 C-60.23928136 74.28155067 -61.53483647 73.05621595 -62.8125 71.8125 C-63.61429688 72.27398437 -64.41609375 72.73546875 -65.2421875 73.2109375 C-72.82662881 77.56210224 -80.44697167 81.84184622 -88.09667969 86.07714844 C-95.03856358 89.92578858 -101.93325164 93.85306123 -108.8125 97.8125 C-108.70421875 98.66908203 -108.70421875 98.66908203 -108.59375 99.54296875 C-107.41172743 109.86924923 -107.07655947 119.72371928 -109.8125 129.8125 C-100.94019228 135.2149448 -91.99036833 140.4800902 -82.99676514 145.677948 C-81.27280023 146.67432249 -79.549724 147.67223409 -77.82666016 148.67016602 C-76.20896729 149.60300415 -76.20896729 149.60300415 -74.55859375 150.5546875 C-73.11504517 151.38782471 -73.11504517 151.38782471 -71.64233398 152.23779297 C-68.73940429 153.8531753 -65.79434962 155.34872802 -62.8125 156.8125 C-62.39742187 156.38839844 -61.98234375 155.96429688 -61.5546875 155.52734375 C-51.0142178 145.49405146 -39.12453592 141.11918648 -24.8125 140.8125 C-10.74730449 141.65443072 0.26101944 147.35893717 9.875 157.5 C17.92630362 167.18028831 21.75113001 178.67369075 21.4375 191.1796875 C20.0224261 206.0821845 13.42489889 218.02836278 2.02734375 227.6328125 C-9.68189411 236.09066489 -22.81299608 237.20574331 -36.8125 235.8125 C-40.8681155 235.01180021 -44.18420645 233.77420895 -47.8125 231.8125 C-48.75480469 231.30332031 -49.69710937 230.79414063 -50.66796875 230.26953125 C-62.2981877 223.41068417 -68.53860829 214.18069688 -72.96875 201.50390625 C-73.95836116 197.17435744 -74.07045146 193.23240217 -74 188.8125 C-73.9990332 187.66007812 -73.9990332 187.66007812 -73.99804688 186.484375 C-73.96245488 181.83368752 -73.57506245 177.40007568 -72.8125 172.8125 C-78.47010404 169.46363967 -84.13890523 166.13419126 -89.8125 162.8125 C-90.89901855 162.17570313 -91.98553711 161.53890625 -93.10498047 160.8828125 C-96.02450591 159.17312219 -98.94765334 157.46974927 -101.87286377 155.76980591 C-103.60906868 154.75927259 -105.34239191 153.74379352 -107.07568359 152.72827148 C-108.15027832 152.10509033 -109.22487305 151.48190918 -110.33203125 150.83984375 C-111.29214111 150.28031006 -112.25225098 149.72077637 -113.24145508 149.14428711 C-115.49988279 147.97443399 -117.29937059 147.14623969 -119.8125 146.8125 C-121.63451153 148.02999046 -121.63451153 148.02999046 -123.3125 149.875 C-133.52353763 159.40022167 -145.36582065 162.3407275 -158.9296875 162.125 C-171.18382861 161.13875122 -182.8224986 155.82584269 -191.22265625 146.7734375 C-200.67175835 135.11877102 -204.33558758 121.69793322 -202.8125 106.8125 C-200.30932473 93.71896783 -193.74659132 82.55960036 -182.8125 74.8125 C-170.37121004 67.35437024 -157.45734795 64.43211706 -143.125 68 C-133.40280473 71.02845675 -125.96784304 75.65715696 -118.8125 82.8125 C-115.14540566 80.72424485 -111.47911978 78.63457892 -107.81365967 76.54345703 C-106.52490215 75.80825298 -105.23604366 75.07322591 -103.94708252 74.33837891 C-95.45282681 69.49419397 -86.97952177 64.62104337 -78.61352539 59.55712891 C-74.02617682 56.8125 -74.02617682 56.8125 -71.8125 56.8125 C-72.13476562 55.67296875 -72.45703125 54.5334375 -72.7890625 53.359375 C-75.88713591 40.89031494 -74.72483734 27.23886083 -68.234375 16.10546875 C-52.64109868 -7.31956572 -24.69749643 -14.58780696 0 0 Z " fill="#FFFFFF" transform="translate(429.8125,260.1875)"/>
<path d="M0 0 C2.36497439 1.86708505 3.66030715 3.32061431 5 6 C5.26855112 9.76500537 5.23160387 13.53899445 5.25 17.3125 C5.270625 18.35857422 5.29125 19.40464844 5.3125 20.48242188 C5.31765625 21.49498047 5.3228125 22.50753906 5.328125 23.55078125 C5.34214355 24.93777222 5.34214355 24.93777222 5.35644531 26.3527832 C4.92782927 29.53599124 3.86970597 31.41080431 2 34 C-1.12942465 35.56471233 -4.61082223 35.69701958 -8 35 C-10.76978359 32.82828558 -11.88220118 31.63357975 -12.53344727 28.13085938 C-12.56899163 24.58590181 -12.59392172 21.04510889 -12.5625 17.5 C-12.58634766 16.26378906 -12.61019531 15.02757812 -12.63476562 13.75390625 C-12.63283203 12.56667969 -12.63089844 11.37945312 -12.62890625 10.15625 C-12.62963135 9.07150391 -12.63035645 7.98675781 -12.63110352 6.86914062 C-12 4 -12 4 -9.68334961 1.64648438 C-6.16542356 -0.51209021 -4.0595362 -0.59047799 0 0 Z " fill="#FFFFFF" transform="translate(413,357)"/>
</svg>
