<?xml version="1.0" encoding="UTF-8" standalone="no"?>
<!DOCTYPE svg PUBLIC "-//W3C//DTD SVG 1.1//EN" "http://www.w3.org/Graphics/SVG/1.1/DTD/svg11.dtd">
<svg xmlns="http://www.w3.org/2000/svg" version="1.1" viewBox="0.00 0.00 512.00 512.00">
<g stroke-width="2.00" fill="none" stroke-linecap="butt">
<path stroke="#ddb392" vector-effect="non-scaling-stroke" d="
  M 353.25 128.27
  Q 342.65 117.45 336.46 103.44"
/>
<path stroke="#eecba8" vector-effect="non-scaling-stroke" d="
  M 231.31 301.63
  Q 230.55 301.57 230.30 302.08
  Q 224.06 314.94 214.50 325.56
  Q 214.36 325.72 214.37 326.30"
/>
<path stroke="#eecba8" vector-effect="non-scaling-stroke" d="
  M 353.24 383.74
  Q 342.71 394.47 336.46 408.55"
/>
</g>
<path fill="#d9ad8b" d="
  M 401.89 0.00
  L 410.23 0.00
  Q 438.70 2.33 458.16 21.23
  C 486.73 48.98 488.42 93.25 463.29 123.24
  C 449.28 139.96 428.57 149.83 406.52 149.91
  Q 376.03 150.02 353.25 128.27
  Q 342.65 117.45 336.46 103.44
  Q 335.86 104.16 336.35 103.20
  A 0.42 0.42 0.0 0 0 336.37 102.85
  C 325.46 74.51 331.63 44.00 352.63 22.37
  Q 372.16 2.25 401.89 0.00
  Z"
/>
<path fill="#e1b898" d="
  M 336.46 103.44
  Q 342.65 117.45 353.25 128.27
  L 231.21 210.49
  Q 230.80 210.77 231.00 211.23
  Q 251.02 256.06 231.00 300.78
  Q 230.88 301.04 230.93 301.24
  Q 231.02 301.56 231.31 301.63
  Q 230.55 301.57 230.30 302.08
  Q 224.06 314.94 214.50 325.56
  Q 214.36 325.72 214.37 326.30
  Q 214.46 326.21 214.18 326.20
  Q 213.98 326.20 213.84 326.35
  C 170.23 374.31 94.79 372.00 54.17 321.61
  C 25.48 286.04 23.39 236.01 48.53 198.09
  C 86.37 141.01 167.50 134.89 213.70 185.50
  Q 214.04 185.88 214.46 185.59
  L 336.46 103.44
  Z"
/>
<path fill="#faddb7" d="
  M 231.31 301.63
  L 353.24 383.74
  Q 342.71 394.47 336.46 408.55
  L 214.37 326.30
  Q 214.36 325.72 214.50 325.56
  Q 224.06 314.94 230.30 302.08
  Q 230.55 301.57 231.31 301.63
  Z"
/>
<path fill="#e1b898" d="
  M 410.10 512.00
  L 401.76 512.00
  Q 386.38 510.81 373.75 504.69
  C 338.05 487.41 321.98 446.42 336.29 409.30
  Q 336.51 408.72 336.46 408.55
  Q 342.71 394.47 353.24 383.74
  C 380.62 357.46 420.76 354.63 451.33 377.34
  C 469.94 391.17 480.75 413.57 480.93 436.45
  C 481.10 457.66 472.32 477.82 456.62 492.22
  Q 437.42 509.84 410.10 512.00
  Z"
/>
</svg>
