<svg height="1660" viewBox="0 0 666 1660" width="666" xmlns="http://www.w3.org/2000/svg"><g fill="none" stroke-miterlimit="100" stroke-width="5"><g stroke="#77554c"><path d="m17.7 1641c-.4 0-.7-.3-.7-.7v-88.6c0-.4.3-.7.7-.7h178.7c.3 0 .6.3.6.7v88.6c0 .4-.3.7-.6.7z"/><path d="m376.5 1461h-358.7q-.2 0-.3-.1-.1 0-.2-.1-.2-.1-.2-.3-.1-.1-.1-.3 0-98.9 0-199.2 0-3.4.4-6.6 4-33.2 30.7-51.4 17.4-11.9 40-12 98.7 0 198.4 0 .5 0 .5.5v89q0 .1 0 .2 0 .1-.1.2-.1 0-.2.1-.1 0-.2 0h-178.7q-.2 0-.3.1-.1 0-.2.1-.2.1-.2.3-.1.1-.1.2v88.8q0 .5.5.5h358.8q.7 0 .7.7v268.6q0 .1 0 .3-.1.1-.2.2-.1.1-.2.2-.2 0-.3 0-87.9-.1-176.5.1-1.1 0-2.1-.3-.1 0-.2-.1-.2-.1-.3-.2-.1-.1-.1-.2-.1-.2-.1-.4v-88.4q0-.1.1-.2 0-.1.1-.2.1 0 .1-.1.1 0 .2 0h89.1q.1 0 .2 0 .1-.1.1-.1.1-.1.1-.1 0-.1 0-.2v-89.1q0-.5-.5-.5z"/><path d="m376.4 921h-88.6q-.2 0-.3.1-.1 0-.2.1-.2.1-.2.3-.1.1-.1.2v178.8q0 .1 0 .2 0 .1-.1.2-.1 0-.2.1-.1 0-.2 0h-268.4q-.2 0-.4-.1-.2-.1-.4-.2-.1-.1-.2-.3-.1-.2-.1-.4 0-99.8.2-199.1 0-4.3.3-6.6 3.7-32.9 30.6-51.4 17.3-11.8 39.8-11.9 54 0 108.6 0 .1 0 .2 0 .1-.1.2-.1 0-.1.1-.2 0-.1 0-.2v-359q0-.5-.5-.5h-88.7q-.2 0-.3.1-.1 0-.2.1-.2.1-.2.3-.1.1-.1.2v268.7q0 .1 0 .2-.1.1-.2.2 0 .1-.2.2-.1 0-.2 0h-88.6q-.2 0-.3-.1-.1 0-.2-.1-.2-.1-.2-.3-.1-.1-.1-.3 0-150.4.1-289.2 0-6.2.1-6.5 4.9-33.8 30.8-51.6 17.4-11.8 40.5-11.9 52.8-.1 108 0 .5 0 .5-.5v-269q0-.5-.5-.5h-178.7q-.1 0-.3-.1-.1 0-.3-.1-.1-.2-.1-.3-.1-.2-.1-.3.1-8.6 0-17.1c-.3-24.4 11.1-46.4 30.9-60q17.4-11.9 39.6-12 99.5-.1 199.1-.1.4 0 .4.5v359q0 .5.5.5h88.5q1 0 1-1v-358.6q0-.4.4-.4h89.4q0 0 .1 0 0 0 .1.1 0 0 0 .1 0 0 0 0v449.2q0 .1 0 .2-.1.1-.2.2 0 .1-.2.2-.1 0-.2 0h-178.6q-.8 0-.8.7v358.8q0 .5.5.5h88.9q.1 0 .3 0 .1-.1.2-.2 0-.1.1-.2 0-.1 0-.2v-265.9q0-.5.5-.5h89q.5 0 .5.5v715.7q0 .2 0 .3-.1.2-.2.3-.1.1-.2.1-.2.1-.3.1h-88.4q-.2 0-.3-.1-.2 0-.3-.2-.1-.1-.2-.2-.1-.2-.1-.4v-358.5q0-.6-.6-.6zm-268.9 0q-.1 0-.2 0 0 .1-.1.1-.1.1-.1.2-.1.1-.1.2v89q0 .1.1.2 0 .1.1.2.1 0 .1.1.1 0 .2 0h89q.1 0 .2 0 .1-.1.2-.1.1-.1.1-.2 0-.1 0-.2v-89q0-.1 0-.2 0-.1-.1-.2-.1 0-.2-.1-.1 0-.2 0z"/></g><path d="m17.8 291c-.4 0-.8-.3-.8-.8v-88.4c0-.5.4-.8.8-.8h88.5c.4 0 .7.3.7.8v88.4c0 .5-.3.8-.7.8z" stroke="#c39b7b"/><path d="m558.8 1641c-.4 0-.8-.3-.8-.7v-178.6c0-.4.4-.7.8-.7h88.5c.4 0 .7.3.7.7v178.6c0 .4-.3.7-.7.7z" stroke="#c39b7b"/><path d="m558 1370.4v-1348.8q0-.1.1-.2 0-.1.1-.2.1-.1.2-.2.1 0 .2 0h88.8q.2 0 .3 0 .1.1.2.2 0 .1.1.2 0 .1 0 .2v1348.8q0 .1 0 .2-.1.1-.1.2-.1.1-.2.2-.1 0-.3 0h-88.8q-.1 0-.2-.1-.1 0-.2-.1-.1-.1-.1-.2-.1-.1-.1-.2z" stroke="#77554c"/></g></svg>