<svg height="684" viewBox="0 0 1677 684" width="1677" xmlns="http://www.w3.org/2000/svg"><path d="m1558 26h90v90h-90z" fill="#77554c"/><path d="m1558 116h90v90h-90z" fill="#77554c"/><path d="m1558 206h90v90h-90z" fill="#77554c"/><path d="m1468 206h90v90h-90z" fill="#77554c"/><path d="m1378 206h90v90h-90z" fill="#77554c"/><path d="m1378 26h90v90h-90z" fill="#c39b7b"/><g fill="#77554c"><path d="m1288 206h90v90h-90z"/><path d="m1198 206h90v90h-90z"/><path d="m1198 205h90v1h-90z"/><path d="m1198 116h90v90h-90z"/><path d="m1198 26h90v90h-90z"/><path d="m1108 26h90v90h-90z"/><path d="m1018 26h90v90h-90z"/><path d="m928 26h90v90h-90z"/><path d="m1198 296h90v90h-90z"/><path d="m1198 386h90v90h-90z"/><path d="m1288 386h90v90h-90z"/><path d="m1108 206h90v90h-90z"/><path d="m1018 206h90v90h-90z"/><path d="m928 206h90v90h-90z"/><path d="m838 206h90v90h-90z"/><path d="m748 206h90v90h-90z"/><path d="m748 116h90v90h-90z"/><path d="m748 26h90v90h-90z"/><path d="m658 26h90v90h-90z"/><path d="m568 26h90v90h-90z"/><path d="m568 116h90v90h-90z"/><path d="m568 205h90v1h-90z"/><path d="m568 206h90v90h-90z"/><path d="m658 206h90v90h-90z"/><path d="m748 296h90v90h-90z"/><path d="m748 385h90v1h-90z"/><path d="m748 386h90v90h-90z"/><path d="m838 386h90v90h-90z"/><path d="m928 386h177v90h-177z"/><path d="m658 386h90v90h-90z"/><path d="m568 386h90v90h-90z"/><path d="m388 206h90v90h-90z"/><path d="m388 116h90v90h-90z"/><path d="m388 26h90v90h-90z"/><path d="m298 26h90v90h-90z"/><path d="m208 26h90v90h-90z"/><path d="m208 116h90v90h-90z"/><path d="m208 205h90v1h-90z"/><path d="m208 206h90v90h-90z"/><path d="m208 296h90v90h-90z"/><path d="m208 386h90v90h-90z"/><path d="m118 386h90v90h-90z"/><path d="m28 386h90v90h-90z"/><path d="m28 296h90v90h-90z"/></g><path d="m28 567h90v90h-90z" fill="#c39b7b"/><path d="m118 567h90v90h-90z" fill="#c39b7b"/><path d="m298 567h90v90h-90z" fill="#77554c"/><path d="m388 567h90v90h-90z" fill="#77554c"/><path d="m478 567h90v90h-90z" fill="#77554c"/><path d="m568 567h90v90h-90z" fill="#77554c"/><path d="m658 567h90v90h-90z" fill="#77554c"/><path d="m748 567h90v90h-90z" fill="#77554c"/><path d="m838 567h90v90h-90z" fill="#77554c"/><path d="m928 567h90v90h-90z" fill="#77554c"/><path d="m1018 567h90v90h-90z" fill="#77554c"/><path d="m1108 567h90v90h-90z" fill="#77554c"/><path d="m1198 567h90v90h-90z" fill="#77554c"/><path d="m1288 567h90v90h-90z" fill="#77554c"/><path d="m1378 567h90v90h-90z" fill="#77554c"/><path d="m1468 567h90v90h-90z" fill="#77554c"/><path d="m1558 567h90v90h-90z" fill="#77554c"/><path d="m1376 386h182v90h-182z" fill="#77554c"/><path d="m1558 386h90v90h-90z" fill="#77554c"/><path d="m478 386h90v90h-90z" fill="#77554c"/><path d="m388 386h90v90h-90z" fill="#77554c"/><path d="m28 116h90v90h-90z" fill="#77554c"/><path d="m28 26h90v90h-90z" fill="#77554c"/></svg>